<?xml version="1.0" encoding="utf-8"?>
<!-- Generator: Adobe Illustrator 27.5.0, SVG Export Plug-In . SVG Version: 6.00 Build 0)  -->
<svg version="1.1" xmlns="http://www.w3.org/2000/svg" xmlns:xlink="http://www.w3.org/1999/xlink" x="0px" y="0px"
	 viewBox="0 0 3710 3710" style="enable-background:new 0 0 3710 3710;" xml:space="preserve">
<g id="Background">
	<g>
		<g>
			<rect style="fill:#FFFFFF;" width="3710" height="3710"/>
		</g>
	</g>
</g>
<g id="Illustration">
	<g>
		<linearGradient id="SVGID_1_" gradientUnits="userSpaceOnUse" x1="3446.491" y1="3948.1841" x2="1113.4288" y2="1050.6674">
			<stop  offset="0" style="stop-color:#B37CFF"/>
			<stop  offset="1" style="stop-color:#F895E7"/>
		</linearGradient>
		<path style="opacity:0.3;fill:url(#SVGID_1_);" d="M2804.651,2805.508c-53.589,56.417-104.295,92.799-144.357,121.544
			c-470.918,337.889-1028.139,239.396-1146.564,215.343c-174.877-35.518-512.91-104.175-757.302-391.574
			c-369.744-434.812-312.17-1119.846-25.371-1572.046c52.46-82.715,329.569-541.803,892.791-615.427
			c340.856-44.556,738.185,45.308,1025.919,286.373C3253.749,1355.736,3210.752,2377.978,2804.651,2805.508z"/>
		<g>
			<g>
				<g style="opacity:0.3;">
					
						<linearGradient id="SVGID_00000129892275928594172190000012834137380705239994_" gradientUnits="userSpaceOnUse" x1="-1235.6372" y1="3101.5581" x2="-714.1416" y2="3101.5581" gradientTransform="matrix(-0.7712 -0.6366 0.6366 -0.7712 -497.027 2801.3096)">
						<stop  offset="0" style="stop-color:#B37CFF"/>
						<stop  offset="1" style="stop-color:#F895E7"/>
					</linearGradient>
					<path style="fill:url(#SVGID_00000129892275928594172190000012834137380705239994_);" d="M2552.938,1030.197
						c3.564,2.942,4.403,8.162,1.791,12.097c-5.708,8.607-11.876,17.094-18.33,25.225c-3.14,3.956-8.892,4.618-12.846,1.479
						c-0.047-0.039-0.092-0.076-0.138-0.114c-3.831-3.162-4.442-8.825-1.339-12.733c6.133-7.724,11.99-15.786,17.414-23.962
						c2.79-4.208,8.466-5.359,12.674-2.566C2552.435,1029.801,2552.692,1029.994,2552.938,1030.197z M2501.781,1091.251
						c0.275,0.228,0.542,0.474,0.795,0.739c3.49,3.649,3.361,9.438-0.288,12.928c-7.497,7.167-15.375,14.086-23.414,20.56
						c-3.933,3.168-9.665,2.553-12.858-1.383c-3.167-3.934-2.544-9.69,1.386-12.855c7.641-6.155,15.124-12.727,22.248-19.541
						C2493.034,1088.464,2498.256,1088.342,2501.781,1091.251z M2438.452,1139.523c0.785,0.648,1.475,1.439,2.027,2.363
						c2.588,4.336,1.175,9.949-3.16,12.539c-8.884,5.31-18.112,10.299-27.426,14.828c-4.543,2.206-10.01,0.31-12.221-4.224
						c-2.208-4.541-0.316-10.014,4.225-12.221c8.845-4.3,17.604-9.037,26.043-14.079
						C2431.351,1136.69,2435.555,1137.131,2438.452,1139.523z M2365.905,1172.429c1.298,1.071,2.314,2.512,2.871,4.231
						c1.555,4.803-1.08,9.959-5.883,11.515c-9.856,3.188-19.966,5.99-30.052,8.326c-4.916,1.134-9.826-1.928-10.97-6.846
						c-1.139-4.918,1.927-9.83,6.846-10.97c9.578-2.218,19.182-4.877,28.546-7.91
						C2360.348,1169.778,2363.576,1170.507,2365.905,1172.429z M2287.843,1188.331c1.82,1.502,3.06,3.702,3.286,6.236
						c0.451,5.031-3.262,9.473-8.291,9.921c-10.291,0.921-20.768,1.414-31.135,1.462c-5.05,0.028-9.165-4.045-9.188-9.098
						c-0.023-5.049,4.049-9.162,9.101-9.188c9.854-0.045,19.812-0.514,29.591-1.389
						C2283.703,1186.053,2286.053,1186.853,2287.843,1188.331z M2208.213,1186.569c2.356,1.945,3.686,5.025,3.249,8.276
						c-0.674,5.005-5.276,8.515-10.281,7.844c-10.256-1.38-20.583-3.216-30.688-5.463c-4.932-1.097-8.037-5.981-6.941-10.911
						c1.094-4.927,5.979-8.036,10.908-6.941c9.603,2.134,19.412,3.88,29.158,5.191
						C2205.374,1184.799,2206.942,1185.519,2208.213,1186.569z M1935.964,990.087c0.977,0.806,1.798,1.827,2.39,3.038
						c4.31,8.827,9.064,17.585,14.131,26.028c2.597,4.329,1.194,9.946-3.134,12.542c-4.329,2.6-9.946,1.196-12.545-3.134
						c-5.336-8.892-10.345-18.115-14.885-27.41c-2.216-4.538-0.333-10.013,4.205-12.228
						C1929.452,987.296,1933.284,987.875,1935.964,990.087z M2131.004,1167.215c2.925,2.414,4.145,6.505,2.742,10.256
						c-1.77,4.731-7.038,7.13-11.767,5.361c-9.694-3.625-19.348-7.717-28.695-12.162c-4.549-2.189-6.502-7.622-4.332-12.184
						c2.168-4.56,7.624-6.498,12.185-4.331c8.875,4.222,18.042,8.107,27.248,11.551
						C2129.362,1166.074,2130.242,1166.587,2131.004,1167.215z M1978.76,1057.261c0.465,0.384,0.901,0.818,1.296,1.306
						c6.18,7.643,12.775,15.119,19.594,22.225c3.496,3.645,3.377,9.433-0.265,12.929c-3.644,3.494-9.445,3.397-12.928-0.265
						c-7.174-7.477-14.114-15.344-20.619-23.385c-3.175-3.927-2.567-9.686,1.359-12.859
						C1970.634,1054.429,1975.477,1054.551,1978.76,1057.261z M2060.053,1131.1c3.559,2.937,4.401,8.148,1.802,12.082
						c-2.783,4.214-8.454,5.373-12.67,2.592c-8.626-5.698-17.124-11.846-25.251-18.276c-0.052-0.038-0.103-0.08-0.152-0.121
						c-3.826-3.158-4.44-8.81-1.35-12.719c3.134-3.962,8.882-4.635,12.843-1.5c7.722,6.105,15.793,11.943,23.991,17.356
						C2059.539,1130.699,2059.804,1130.895,2060.053,1131.1z"/>
					
						<linearGradient id="SVGID_00000146463598124826000800000017953812054997300112_" gradientUnits="userSpaceOnUse" x1="-688.7882" y1="2964.1724" x2="-658.3296" y2="2964.1724" gradientTransform="matrix(-0.7712 -0.6366 0.6366 -0.7712 -497.027 2801.3096)">
						<stop  offset="0" style="stop-color:#B37CFF"/>
						<stop  offset="1" style="stop-color:#F895E7"/>
					</linearGradient>
					<path style="fill:url(#SVGID_00000146463598124826000800000017953812054997300112_);" d="M1913.127,930.083
						c1.388,1.146,2.455,2.712,2.978,4.578c1.27,4.54,2.659,9.127,4.121,13.64c1.559,4.802-1.072,9.961-5.874,11.518
						c-4.803,1.56-9.967-1.067-11.518-5.876c-1.541-4.745-3-9.57-4.338-14.348c-1.362-4.861,1.476-9.91,6.336-11.27
						C1907.83,927.484,1910.896,928.241,1913.127,930.083z"/>
				</g>
				<g style="opacity:0.3;">
					
						<linearGradient id="SVGID_00000075867388171248314640000012021917085810309045_" gradientUnits="userSpaceOnUse" x1="-530.681" y1="3196.9023" x2="-509.7794" y2="3196.9023" gradientTransform="matrix(-0.7712 -0.6366 0.6366 -0.7712 -497.027 2801.3096)">
						<stop  offset="0" style="stop-color:#B37CFF"/>
						<stop  offset="1" style="stop-color:#F895E7"/>
					</linearGradient>
					<path style="fill:url(#SVGID_00000075867388171248314640000012021917085810309045_);" d="M1948.725,653.611
						c3.403,2.809,4.362,7.749,2.056,11.677c-2.388,4.063-4.732,8.246-6.962,12.43c-2.377,4.456-7.915,6.142-12.37,3.766
						c-4.474-2.387-6.141-7.917-3.766-12.371c2.35-4.404,4.817-8.81,7.33-13.089c2.558-4.353,8.161-5.809,12.516-3.252
						C1947.956,653.023,1948.354,653.306,1948.725,653.611z"/>
					
						<linearGradient id="SVGID_00000178185413260092323790000003357138710656085665_" gradientUnits="userSpaceOnUse" x1="-1042.463" y1="3434.6523" x2="-505.3087" y2="3434.6523" gradientTransform="matrix(-0.7712 -0.6366 0.6366 -0.7712 -497.027 2801.3096)">
						<stop  offset="0" style="stop-color:#B37CFF"/>
						<stop  offset="1" style="stop-color:#F895E7"/>
					</linearGradient>
					<path style="fill:url(#SVGID_00000178185413260092323790000003357138710656085665_);" d="M2482.302,558.888
						c3.244,2.678,6.456,5.422,9.634,8.229c3.783,3.345,4.14,9.123,0.797,12.907c-3.343,3.784-9.152,4.14-12.907,0.8
						c-7.334-6.479-14.913-12.647-22.618-18.396c-4.046-3.029-4.881-8.747-1.862-12.795c3.021-4.05,8.751-4.883,12.797-1.862
						C2472.909,551.326,2477.672,555.067,2482.302,558.888z M2525.84,601.477c0.394,0.325,0.767,0.689,1.112,1.09
						c6.662,7.726,13.07,15.821,19.044,24.059c2.965,4.086,2.055,9.804-2.031,12.768c-4.089,2.965-9.821,2.058-12.77-2.033
						c-5.675-7.824-11.764-15.512-18.092-22.856c-3.297-3.823-2.869-9.597,0.954-12.892
						C2517.482,598.659,2522.467,598.694,2525.84,601.477z M2427.675,521.742c3.325,2.744,4.336,7.547,2.179,11.459
						c-2.44,4.423-8,6.03-12.424,3.592c-8.458-4.666-17.231-9.031-26.082-12.974c-4.609-2.063-6.685-7.462-4.629-12.074
						c2.058-4.613,7.463-6.686,12.076-4.63c9.319,4.153,18.559,8.752,27.467,13.664
						C2426.771,521.062,2427.243,521.385,2427.675,521.742z M2570.182,666.135c0.895,0.739,1.661,1.663,2.241,2.749
						c4.797,8.993,9.267,18.299,13.285,27.659c1.991,4.64-0.155,10.014-4.794,12.005c-4.642,1.994-10.016-0.149-12.008-4.794
						c-3.816-8.887-8.06-17.725-12.616-26.265c-2.378-4.454-0.691-9.994,3.764-12.37
						C2563.421,663.324,2567.41,663.847,2570.182,666.135z M2355.31,491.745c2.727,2.251,4.01,5.987,2.963,9.601
						c-1.405,4.851-6.477,7.643-11.328,6.238c-9.272-2.689-18.792-5.016-28.293-6.922c-4.951-0.993-8.162-5.81-7.166-10.764
						c0.994-4.95,5.81-8.157,10.761-7.164c10.004,2.005,20.026,4.456,29.79,7.286
						C2353.271,490.377,2354.376,490.974,2355.31,491.745z M2278.113,478.352c2.18,1.799,3.498,4.582,3.312,7.619
						c-0.312,5.04-4.65,8.874-9.69,8.562c-9.666-0.596-19.47-0.792-29.137-0.584c-5.049,0.116-9.229-3.885-9.34-8.941
						c-0.109-5.049,3.894-9.229,8.944-9.341c10.175-0.22,20.491-0.013,30.662,0.616
						C2274.864,476.406,2276.675,477.166,2278.113,478.352z M2199.833,482.108c1.658,1.369,2.842,3.323,3.206,5.614
						c0.794,4.985-2.606,9.672-7.593,10.465c-9.573,1.522-19.184,3.463-28.571,5.774c-4.901,1.206-9.854-1.784-11.062-6.694
						c-1.205-4.903,1.79-9.855,6.695-11.063c9.877-2.429,19.994-4.475,30.066-6.077
						C2195.271,479.699,2197.88,480.496,2199.833,482.108z M2124.24,502.845c1.149,0.948,2.081,2.19,2.67,3.672
						c1.865,4.692-0.428,10.006-5.121,11.871c-9.004,3.576-17.954,7.577-26.605,11.893c-4.519,2.254-10.013,0.414-12.264-4.097
						c-2.255-4.519-0.419-10.01,4.1-12.264c9.113-4.547,18.539-8.76,28.016-12.525
						C2118.25,500.119,2121.752,500.791,2124.24,502.845z M2055.017,539.685c0.646,0.533,1.228,1.166,1.725,1.892
						c2.853,4.165,1.788,9.857-2.378,12.708c-7.973,5.46-15.817,11.331-23.319,17.458c-3.912,3.194-9.679,2.598-12.864-1.3
						c-3.195-3.911-2.612-9.672,1.3-12.866c7.897-6.448,16.156-12.631,24.55-18.377
						C2047.472,536.843,2051.954,537.157,2055.017,539.685z M1995.619,590.798c0.145,0.119,0.286,0.245,0.425,0.374
						c3.691,3.445,3.891,9.231,0.445,12.921c-4.864,5.211-9.623,10.632-14.152,16.119c-1.639,1.986-3.253,3.988-4.84,5.999
						c-3.13,3.964-8.881,4.641-12.842,1.51c-4.074-3.09-4.64-8.877-1.513-12.839c1.671-2.117,3.366-4.219,5.092-6.309
						c4.763-5.771,9.773-11.476,14.888-16.956C1986.438,588.064,1991.921,587.746,1995.619,590.798z"/>
					
						<linearGradient id="SVGID_00000043436533149675763740000006753551974847295929_" gradientUnits="userSpaceOnUse" x1="-1096.0099" y1="3547.9016" x2="-1065.9397" y2="3547.9016" gradientTransform="matrix(-0.7712 -0.6366 0.6366 -0.7712 -497.027 2801.3096)">
						<stop  offset="0" style="stop-color:#B37CFF"/>
						<stop  offset="1" style="stop-color:#F895E7"/>
					</linearGradient>
					<path style="fill:url(#SVGID_00000043436533149675763740000006753551974847295929_);" d="M2599.25,739.183
						c1.402,1.157,2.473,2.74,2.992,4.623c1.312,4.773,2.547,9.664,3.671,14.538c1.136,4.921-1.931,9.831-6.851,10.966
						c-4.921,1.134-9.83-1.926-10.966-6.851c-1.069-4.629-2.243-9.275-3.487-13.807c-1.34-4.866,1.522-9.899,6.392-11.238
						C2593.988,736.594,2597.033,737.353,2599.25,739.183z"/>
				</g>
				<g>
					
						<linearGradient id="SVGID_00000109741712789012167620000014908099207606922686_" gradientUnits="userSpaceOnUse" x1="367.8321" y1="3801.5142" x2="-1548.2412" y2="2960.313" gradientTransform="matrix(-0.7712 -0.6366 0.6366 -0.7712 -497.027 2801.3096)">
						<stop  offset="0" style="stop-color:#B37CFF"/>
						<stop  offset="1" style="stop-color:#F895E7"/>
					</linearGradient>
					<path style="fill:url(#SVGID_00000109741712789012167620000014908099207606922686_);" d="M2522.229,813.119
						c0.01-1.822-1.137-3.452-2.858-4.056l-49.074-17.229c-5.407-23.679-14.629-46.667-27.688-67.981l23.024-46.599
						c0.808-1.635,0.489-3.602-0.792-4.898l-43.866-44.359c-1.283-1.296-3.246-1.636-4.888-0.848l-46.853,22.503
						c-21.167-13.296-44.05-22.774-67.668-28.444l-16.68-49.264c-0.585-1.726-2.2-2.892-4.023-2.902l-62.385-0.348
						c-1.824-0.01-3.453,1.138-4.056,2.858l-17.229,49.073c-23.679,5.407-46.667,14.63-67.981,27.689l-46.6-23.025
						c-1.634-0.808-3.601-0.489-4.897,0.793l-44.359,43.867c-1.296,1.282-1.637,3.245-0.847,4.888l22.503,46.853
						c-13.296,21.167-22.775,44.049-28.445,67.667l-49.264,16.681c-1.725,0.585-2.892,2.201-2.902,4.023l-0.348,62.385
						c-0.011,1.824,1.137,3.452,2.857,4.056l49.074,17.228c5.406,23.68,14.629,46.668,27.688,67.981l-23.025,46.6
						c-0.807,1.634-0.489,3.601,0.792,4.897l43.868,44.359c1.282,1.297,3.245,1.637,4.888,0.847l46.853-22.504
						c21.166,13.297,44.05,22.775,67.668,28.445l16.68,49.263c0.584,1.727,2.201,2.893,4.024,2.903l62.385,0.348
						c1.823,0.01,3.452-1.137,4.056-2.857l17.229-49.074c23.68-5.406,46.668-14.63,67.981-27.689l46.6,23.025
						c1.633,0.807,3.601,0.489,4.897-0.793l44.359-43.866c1.296-1.282,1.637-3.245,0.848-4.889l-22.504-46.853
						c13.296-21.166,22.774-44.049,28.445-67.667l49.263-16.681c1.727-0.585,2.892-2.2,2.903-4.024L2522.229,813.119z"/>
					<path style="opacity:0.56;fill:#FFFFFF;" d="M2288.093,794.443c23.575,19.459,29.988,53.856,13.715,80.779
						c-17.889,29.594-56.514,39.114-86.107,21.228c-14.339-8.663-24.44-22.394-28.447-38.655c-4.01-16.263-1.447-33.115,7.22-47.449
						c17.889-29.594,56.514-39.114,86.107-21.228C2283.248,790.73,2285.756,792.514,2288.093,794.443z M2217.451,879.806
						c1.821,1.503,3.76,2.881,5.817,4.125c22.687,13.715,52.305,6.411,66.019-16.275c13.714-22.689,6.425-52.31-16.275-66.021
						c-22.687-13.715-52.305-6.411-66.019,16.274c-6.645,10.993-8.61,23.911-5.536,36.382
						C2203.957,864.426,2209.544,873.28,2217.451,879.806z"/>
					<path style="opacity:0.56;fill:#FFFFFF;" d="M2344.759,723.774c4.049,3.342,7.953,6.907,11.696,10.69l0,0
						c1.178,1.19,2.337,2.401,3.477,3.629c5.617,6.057,10.742,12.552,15.299,19.384c0.062,0.093,0.124,0.186,0.187,0.279
						c0.175,0.265,0.35,0.53,0.522,0.797c0.34,0.517,0.674,1.038,1.007,1.558c0.874,1.37,0.722,3.101-0.259,4.292
						c-0.239,0.289-0.527,0.546-0.86,0.758c-1.703,1.086-3.96,0.579-5.048-1.119c-5.586-8.765-12.156-16.984-19.525-24.433
						c-36.591-37.014-88.147-50.448-135.605-40.216c-26.397,5.688-51.527,18.701-72.109,39.057c-3.61,3.568-7.013,7.294-10.2,11.157
						c-21.449,25.993-33.209,58.304-33.398,92.458c-0.22,39.232,14.853,76.203,42.438,104.097
						c56.978,57.605,150.131,58.105,207.714,1.159c3.551-3.511,6.91-7.189,10.067-11.016c13.681-16.582,23.582-35.973,28.924-56.816
						c0.139-0.539,0.388-1.018,0.721-1.419c0.873-1.058,2.311-1.579,3.729-1.215c1.956,0.508,3.141,2.49,2.635,4.452
						c-5.609,21.883-16.002,42.243-30.365,59.651c-3.313,4.017-6.839,7.877-10.565,11.563
						c-60.457,59.788-158.294,59.22-218.06-1.214c-28.961-29.285-44.782-68.096-44.551-109.282
						c0.198-35.856,12.544-69.775,35.06-97.064c3.347-4.055,6.919-7.964,10.706-11.711c29.288-28.962,68.098-44.784,109.283-44.555
						C2283.542,688.894,2317.468,701.248,2344.759,723.774z"/>
				</g>
			</g>
			<g>
				<g style="opacity:0.3;">
					
						<linearGradient id="SVGID_00000173857372009522213260000016699848534041466298_" gradientUnits="userSpaceOnUse" x1="-1607.2882" y1="3626.9507" x2="-1589.8568" y2="3626.9507" gradientTransform="matrix(-0.7712 -0.6366 0.6366 -0.7712 -497.027 2801.3096)">
						<stop  offset="0" style="stop-color:#B37CFF"/>
						<stop  offset="1" style="stop-color:#F895E7"/>
					</linearGradient>
					<path style="fill:url(#SVGID_00000173857372009522213260000016699848534041466298_);" d="M3052.411,1009.244
						c2.209,1.823,3.055,4.944,1.868,7.712c-2.211,5.168-4.61,10.34-7.131,15.37c-1.637,3.268-5.613,4.59-8.886,2.954
						c-3.281-1.627-4.591-5.617-2.954-8.886c2.401-4.793,4.688-9.722,6.8-14.654c1.436-3.359,5.329-4.917,8.693-3.482
						C3051.398,1008.516,3051.935,1008.85,3052.411,1009.244z"/>
					
						<linearGradient id="SVGID_00000085973652515251478300000002366929447067048859_" gradientUnits="userSpaceOnUse" x1="-1614.3486" y1="3431.125" x2="-1272.7435" y2="3431.125" gradientTransform="matrix(-0.7712 -0.6366 0.6366 -0.7712 -497.027 2801.3096)">
						<stop  offset="0" style="stop-color:#B37CFF"/>
						<stop  offset="1" style="stop-color:#F895E7"/>
					</linearGradient>
					<path style="fill:url(#SVGID_00000085973652515251478300000002366929447067048859_);" d="M3028.151,1054.033
						c2.588,2.136,3.19,5.928,1.287,8.776c-5.371,8.052-11.219,15.92-17.377,23.38c-1.297,1.571-2.615,3.132-3.952,4.687
						c-2.392,2.771-6.633,2.851-9.343,0.698c-2.771-2.387-3.081-6.568-0.698-9.338c1.28-1.484,2.541-2.976,3.78-4.477
						c5.874-7.117,11.451-14.621,16.576-22.297c2.031-3.045,6.139-3.863,9.183-1.837
						C3027.796,1053.757,3027.979,1053.891,3028.151,1054.033z M2983.273,1106.12c0.241,0.199,0.476,0.418,0.692,0.654
						c2.459,2.709,2.26,6.897-0.446,9.358c-8.68,7.895-17.928,15.321-27.482,22.066c-2.988,2.112-7.126,1.38-9.229-1.589
						c-2.11-2.99-1.399-7.116,1.589-9.228c9.115-6.437,17.935-13.521,26.215-21.049
						C2977.078,1104.092,2980.774,1104.058,2983.273,1106.12z M2927.104,1145.769c0.648,0.535,1.203,1.203,1.625,1.987
						c1.723,3.225,0.499,7.238-2.726,8.961c-10.336,5.514-21.132,10.446-32.084,14.644c-3.418,1.313-7.238-0.389-8.553-3.814
						c-1.31-3.412,0.398-7.243,3.81-8.552c10.446-4.006,20.736-8.702,30.593-13.965
						C2922.208,1143.732,2925.096,1144.112,2927.104,1145.769z M2862.904,1170.397c1.057,0.873,1.85,2.08,2.209,3.509
						c0.877,3.55-1.289,7.144-4.838,8.021c-11.395,2.819-23.06,4.955-34.681,6.347c-3.631,0.432-6.923-2.167-7.359-5.789
						c-0.437-3.63,2.153-6.926,5.788-7.363c11.075-1.324,22.207-3.362,33.07-6.051
						C2859.211,1168.547,2861.341,1169.107,2862.904,1170.397z M2794.638,1178.597c1.476,1.219,2.416,3.067,2.409,5.133
						c-0.011,3.654-2.985,6.608-6.642,6.6c-11.722-0.041-23.553-0.801-35.163-2.268c-3.635-0.451-6.201-3.768-5.742-7.397
						c0.459-3.629,3.773-6.201,7.397-5.741c11.08,1.397,22.364,2.125,33.55,2.16
						C2792.039,1177.089,2793.499,1177.657,2794.638,1178.597z M2726.46,1169.982c1.912,1.579,2.854,4.176,2.204,6.742
						c-0.899,3.542-4.502,5.683-8.047,4.786c-11.36-2.886-22.648-6.51-33.543-10.773c-3.411-1.348-5.084-5.177-3.754-8.582
						c1.331-3.404,5.175-5.086,8.577-3.753c10.391,4.066,21.148,7.52,31.979,10.271
						C2724.858,1168.92,2725.729,1169.379,2726.46,1169.982z M2662.473,1144.965c2.394,1.976,3.136,5.43,1.603,8.257
						c-1.743,3.215-5.763,4.408-8.979,2.667c-10.271-5.568-20.325-11.854-29.89-18.684c-2.946-2.18-3.663-6.269-1.536-9.241
						c2.125-2.975,6.26-3.663,9.237-1.541c9.12,6.521,18.71,12.516,28.503,17.824
						C2661.795,1144.455,2662.149,1144.698,2662.473,1144.965z M2582.65,1080.171c0.294,0.243,0.575,0.517,0.832,0.821
						c6.256,7.353,13.025,14.491,20.121,21.219c1.069,1.025,2.131,2.019,3.203,2.997c2.695,2.475,2.879,6.661,0.406,9.357
						c-2.473,2.705-6.748,2.949-9.357,0.411c-1.138-1.049-2.27-2.1-3.391-3.176c-7.411-7.031-14.507-14.515-21.067-22.226
						c-2.371-2.787-2.035-6.962,0.751-9.332C2576.63,1078.128,2580.219,1078.164,2582.65,1080.171z"/>
				</g>
				<g style="opacity:0.3;">
					
						<linearGradient id="SVGID_00000052079693786449824740000004337668950657380491_" gradientUnits="userSpaceOnUse" x1="-1461.8729" y1="3758.6021" x2="-1071.9719" y2="3758.6021" gradientTransform="matrix(-0.7712 -0.6366 0.6366 -0.7712 -497.027 2801.3096)">
						<stop  offset="0" style="stop-color:#B37CFF"/>
						<stop  offset="1" style="stop-color:#F895E7"/>
					</linearGradient>
					<path style="fill:url(#SVGID_00000052079693786449824740000004337668950657380491_);" d="M2970.352,681.313
						c2.788,2.301,3.214,6.427,0.943,9.255c-2.289,2.849-6.459,3.305-9.308,1.012c-8.581-6.898-17.656-13.331-26.973-19.119
						c-3.069-1.946-4.064-6.012-2.131-9.121c1.932-3.109,6.015-4.057,9.121-2.131c9.768,6.075,19.284,12.815,28.279,20.046
						C2970.305,681.274,2970.33,681.295,2970.352,681.313z M2995.433,704.086c0.185,0.153,0.358,0.313,0.529,0.487
						c8.058,8.244,15.695,17.063,22.702,26.208c2.221,2.906,1.674,7.058-1.23,9.281c-2.906,2.23-7.067,1.655-9.286-1.225
						c-6.685-8.729-13.973-17.142-21.66-25.012c-2.556-2.613-2.507-6.807,0.108-9.361
						C2989.044,702.074,2992.86,701.961,2995.433,704.086z M2912.915,645.645c2.264,1.869,3.082,5.093,1.792,7.885
						c-1.531,3.314-5.465,4.763-8.786,3.229c-10.003-4.617-20.365-8.667-30.81-12.031c-3.482-1.139-5.393-4.854-4.267-8.335
						c1.119-3.479,4.853-5.393,8.334-4.272c10.948,3.528,21.814,7.775,32.295,12.62
						C2912.004,644.985,2912.486,645.291,2912.915,645.645z M3036.537,757.817c0.581,0.479,1.089,1.067,1.495,1.754
						c5.843,9.946,11.13,20.355,15.708,30.934c1.455,3.356-0.089,7.255-3.446,8.71c-3.348,1.445-7.248-0.097-8.705-3.446
						c-4.369-10.087-9.409-20.007-14.978-29.492c-1.85-3.153-0.796-7.213,2.357-9.063
						C3031.433,755.767,3034.452,756.096,3036.537,757.817z M2848.563,624.921c1.808,1.492,2.767,3.901,2.292,6.361
						c-0.691,3.596-4.164,5.945-7.754,5.255c-10.789-2.08-21.818-3.519-32.787-4.273c-3.655-0.25-6.404-3.415-6.151-7.064
						c0.252-3.648,3.416-6.404,7.064-6.151c11.5,0.797,23.065,2.302,34.378,4.479
						C2846.733,623.745,2847.738,624.239,2848.563,624.921z M2781.116,620.238c1.384,1.142,2.3,2.837,2.401,4.766
						c0.189,3.652-2.618,6.768-6.27,6.957c-11.002,0.571-22.063,1.813-32.874,3.69c-3.608,0.627-7.036-1.791-7.659-5.391
						c-0.627-3.603,1.785-7.028,5.386-7.654c11.336-1.971,22.931-3.275,34.459-3.873
						C2778.281,618.645,2779.885,619.221,2781.116,620.238z M2714.484,631.849c0.972,0.803,1.729,1.888,2.117,3.189
						c1.061,3.5-0.922,7.197-4.423,8.255c-10.543,3.179-20.982,7.04-31.024,11.47c-3.341,1.468-7.255-0.043-8.728-3.389
						c-1.475-3.347,0.039-7.254,3.388-8.732c10.53-4.641,21.479-8.693,32.537-12.033
						C2710.554,629.947,2712.833,630.487,2714.484,631.849z"/>
					
						<linearGradient id="SVGID_00000116215324590298643730000007984199904211093139_" gradientUnits="userSpaceOnUse" x1="-1504.7371" y1="3783.009" x2="-1478.0703" y2="3783.009" gradientTransform="matrix(-0.7712 -0.6366 0.6366 -0.7712 -497.027 2801.3096)">
						<stop  offset="0" style="stop-color:#B37CFF"/>
						<stop  offset="1" style="stop-color:#F895E7"/>
					</linearGradient>
					<path style="fill:url(#SVGID_00000116215324590298643730000007984199904211093139_);" d="M3063.527,820.18
						c0.985,0.813,1.745,1.919,2.133,3.237c1.6,5.437,3.043,10.946,4.297,16.375c0.821,3.562-1.4,7.121-4.963,7.944
						c-3.558,0.811-7.114-1.403-7.944-4.964c-1.193-5.177-2.573-10.433-4.096-15.623c-1.032-3.509,0.979-7.19,4.486-8.219
						C3059.63,818.289,3061.889,818.828,3063.527,820.18z"/>
				</g>
				<g>
					
						<linearGradient id="SVGID_00000044876206252656306020000017297565835766447011_" gradientUnits="userSpaceOnUse" x1="460.3894" y1="4339.2798" x2="-1786.3583" y2="3352.9048" gradientTransform="matrix(-0.7712 -0.6366 0.6366 -0.7712 -497.027 2801.3096)">
						<stop  offset="0" style="stop-color:#B37CFF"/>
						<stop  offset="1" style="stop-color:#F895E7"/>
					</linearGradient>
					<path style="fill:url(#SVGID_00000044876206252656306020000017297565835766447011_);" d="M3004.829,882.649
						c0.008-1.43-0.892-2.709-2.242-3.182l-38.506-13.518c-4.242-18.579-11.478-36.617-21.725-53.34l18.065-36.563
						c0.634-1.282,0.384-2.826-0.622-3.843l-34.419-34.806c-1.007-1.017-2.547-1.284-3.836-0.665l-36.762,17.657
						c-16.608-10.433-34.563-17.87-53.094-22.319l-13.088-38.654c-0.459-1.354-1.727-2.269-3.158-2.277l-48.949-0.273
						c-1.431-0.008-2.709,0.893-3.182,2.242l-13.518,38.505c-18.58,4.242-36.617,11.478-53.341,21.725l-36.563-18.066
						c-1.283-0.634-2.825-0.384-3.843,0.622l-34.806,34.42c-1.018,1.006-1.285,2.547-0.665,3.835l17.657,36.763
						c-10.433,16.608-17.87,34.563-22.318,53.094l-38.655,13.089c-1.354,0.459-2.269,1.727-2.277,3.156l-0.273,48.95
						c-0.008,1.43,0.893,2.708,2.242,3.182l38.506,13.518c4.241,18.58,11.478,36.617,21.725,53.34l-18.066,36.564
						c-0.633,1.282-0.385,2.825,0.622,3.843l34.42,34.806c1.006,1.017,2.546,1.284,3.835,0.665l36.762-17.657
						c16.608,10.433,34.563,17.87,53.095,22.319l13.088,38.653c0.458,1.355,1.727,2.27,3.157,2.278l48.949,0.273
						c1.43,0.008,2.709-0.892,3.182-2.242l13.519-38.505c18.58-4.242,36.617-11.479,53.34-21.726l36.564,18.067
						c1.281,0.633,2.825,0.384,3.842-0.623l34.806-34.419c1.017-1.006,1.284-2.546,0.665-3.836l-17.657-36.763
						c10.432-16.608,17.869-34.562,22.319-53.094l38.654-13.089c1.355-0.459,2.269-1.726,2.278-3.157L3004.829,882.649z"/>
					<path style="opacity:0.56;fill:#FFFFFF;" d="M2821.739,867.357c8.238,6.8,14.059,16.022,16.663,26.581
						c3.202,12.989,1.152,26.449-5.77,37.899c-14.28,23.63-45.13,31.237-68.771,16.956c-23.642-14.348-31.241-45.146-16.955-68.779
						c6.92-11.452,17.886-19.522,30.874-22.721c12.991-3.205,26.452-1.157,37.903,5.769
						C2817.821,864.358,2819.846,865.795,2821.739,867.357z M2766.298,934.33c1.374,1.134,2.845,2.18,4.413,3.131
						c17.389,10.504,40.08,4.909,50.59-12.477c5.088-8.419,6.6-18.323,4.242-27.874c-2.357-9.559-8.297-17.614-16.714-22.716l0,0
						c-8.422-5.09-18.325-6.598-27.877-4.244c-9.558,2.357-17.624,8.293-22.716,16.718
						C2748.677,902.681,2752.446,922.896,2766.298,934.33z"/>
					<path style="opacity:0.56;fill:#FFFFFF;" d="M2868.063,809.739c3.232,2.667,6.352,5.52,9.362,8.558
						c5.973,6.036,11.337,12.686,15.955,19.784c0.205,0.32,0.41,0.641,0.615,0.961c1.583,2.481,1.306,5.614-0.469,7.771
						c-0.432,0.523-0.955,0.989-1.556,1.373c-3.083,1.967-7.167,1.044-9.14-2.026c-4.248-6.668-9.236-12.906-14.819-18.545
						l-0.003-0.002c-0.305-0.31-0.617-0.618-0.924-0.922c-13.335-13.228-29.461-22.631-47.031-27.742
						c-9.537-2.773-19.506-4.277-29.692-4.426c-0.083-0.001-0.166-0.003-0.248-0.004c-0.256,0-0.506-0.007-0.759-0.005
						c-29.781-0.164-57.845,11.276-79.02,32.217c-2.743,2.708-5.323,5.534-7.743,8.467c-16.281,19.731-25.207,44.26-25.354,70.189
						c-0.164,29.781,11.28,57.841,32.219,79.013c20.935,21.153,48.875,32.928,78.655,33.099c29.78,0.164,57.845-11.276,79.02-32.217
						c2.696-2.662,5.245-5.456,7.641-8.358c10.387-12.59,17.902-27.307,21.956-43.128c0.251-0.975,0.703-1.843,1.307-2.569
						c1.581-1.915,4.184-2.86,6.75-2.201c3.54,0.918,5.68,4.512,4.77,8.062c-4.537,17.702-12.946,34.173-24.561,48.255
						c-2.684,3.252-5.534,6.375-8.547,9.355c-23.695,23.431-55.09,36.23-88.412,36.043c-33.315-0.189-64.57-13.308-87.994-37.026
						c-23.43-23.69-36.231-55.083-36.041-88.406c0.158-29.006,10.146-56.447,28.363-78.522c2.705-3.277,5.594-6.442,8.657-9.473
						C2746.89,771.957,2819.344,769.527,2868.063,809.739z"/>
				</g>
			</g>
		</g>
		<g>
			<g>
				<g>
					
						<linearGradient id="SVGID_00000034072363148078261380000012761877437168915090_" gradientUnits="userSpaceOnUse" x1="527.3976" y1="1779.3606" x2="3184.1675" y2="1779.3606">
						<stop  offset="0" style="stop-color:#2B3582"/>
						<stop  offset="1" style="stop-color:#150E42"/>
					</linearGradient>
					
						<rect x="527.398" y="1090.492" style="fill:url(#SVGID_00000034072363148078261380000012761877437168915090_);" width="2656.77" height="1377.737"/>
					
						<linearGradient id="SVGID_00000130638896700189327350000003645079671070808972_" gradientUnits="userSpaceOnUse" x1="2706.1946" y1="1358.6" x2="-1323.5383" y2="3260.1084">
						<stop  offset="0" style="stop-color:#53D8FF"/>
						<stop  offset="1" style="stop-color:#3840F7"/>
					</linearGradient>
					
						<rect x="547.961" y="1090.492" style="fill:url(#SVGID_00000130638896700189327350000003645079671070808972_);" width="2611.531" height="1340.723"/>
					
						<linearGradient id="SVGID_00000136393148715710332170000013720166243311431088_" gradientUnits="userSpaceOnUse" x1="495.8539" y1="1066.447" x2="3211.6245" y2="1066.447">
						<stop  offset="0" style="stop-color:#2B3582"/>
						<stop  offset="1" style="stop-color:#150E42"/>
					</linearGradient>
					<path style="fill:url(#SVGID_00000136393148715710332170000013720166243311431088_);" d="M3183.601,1012.352H532.286
						c-18.111,0-36.432,15.136-36.432,33.813v40.559c0,9.024,5.317,17.674,11.534,24.025c6.217,6.351,15.547,9.876,24.297,9.791
						l2649.386-25.772c17.989-0.175,30.554-15.264,30.554-33.816v-14.787C3211.625,1027.488,3201.711,1012.352,3183.601,1012.352z"
						/>
					
						<linearGradient id="SVGID_00000129919116978403621920000008762861527642074044_" gradientUnits="userSpaceOnUse" x1="499.2511" y1="2469.9514" x2="3214.146" y2="2469.9514">
						<stop  offset="0" style="stop-color:#2B3582"/>
						<stop  offset="1" style="stop-color:#150E42"/>
					</linearGradient>
					<path style="fill:url(#SVGID_00000129919116978403621920000008762861527642074044_);" d="M3186.131,2414.765H535.671
						c-18.105,0-36.42,17.32-36.42,35.996v40.559c0,9.024,5.316,17.674,11.53,24.025c6.215,6.351,15.542,9.876,24.289,9.791
						l2648.531-25.772c17.983-0.175,30.544-15.263,30.544-33.816v-14.787C3214.146,2432.084,3204.236,2414.765,3186.131,2414.765z"
						/>
				</g>
				<path style="opacity:0.35;fill:#FFFFFF;" d="M3059.842,1169.411l-2432.567-14.184c-10.199-0.06-21.884,3.95-29.117,11.141
					c-7.233,7.191-13.183,16.969-13.183,27.169v1159.492c0,21.159,20.982,37.061,42.141,37.061h2432.631
					c21.158,0,38.056-15.902,38.056-37.061V1207.721C3097.802,1186.65,3080.913,1169.534,3059.842,1169.411z"/>
			</g>
			<g>
				<g style="opacity:0.76;">
					<path style="fill:#FFFFFF;" d="M1376.402,1194.957l849.191-17.295c8.705-0.177,15.834,6.874,15.75,15.581l-0.13,13.669
						c-0.081,8.442-6.929,15.254-15.371,15.29l-849.06,3.625c-8.609,0.036-15.585-6.976-15.503-15.584l0,0
						C1361.359,1201.897,1368.059,1195.127,1376.402,1194.957z"/>
					<path style="fill:#FFFFFF;" d="M1360.601,1281.418l-0.055,5.826c-0.081,8.525,6.764,15.502,15.288,15.583l848.949,8.099
						c8.525,0.081,15.502-6.765,15.584-15.289l0.055-5.826c0.081-8.524-6.764-15.502-15.289-15.583l-848.949-8.1
						C1367.66,1266.047,1360.682,1272.894,1360.601,1281.418z"/>
					<path style="fill:#FFFFFF;" d="M1617.546,1359.984l-0.023,2.558c-0.082,8.525,6.764,15.502,15.288,15.583l591.277,5.641
						c8.526,0.081,15.502-6.765,15.584-15.29l0.115-12.019c0.083-8.622-6.915-15.639-15.537-15.583l-591.367,3.82
						C1624.454,1344.748,1617.627,1351.555,1617.546,1359.984z"/>
				</g>
				<g>
					<g style="opacity:0.53;">
						<rect x="668.461" y="1604.153" style="fill:#FFFFFF;" width="141.989" height="733.987"/>
						<rect x="905.711" y="1604.153" style="fill:#FFFFFF;" width="141.989" height="733.987"/>
						<rect x="1142.962" y="1604.153" style="fill:#FFFFFF;" width="141.989" height="733.987"/>
						<rect x="1380.212" y="1604.153" style="fill:#FFFFFF;" width="141.989" height="733.987"/>
						<rect x="1617.463" y="1604.153" style="fill:#FFFFFF;" width="141.989" height="733.987"/>
						<rect x="1854.713" y="1604.153" style="fill:#FFFFFF;" width="141.989" height="733.987"/>
						<rect x="2091.964" y="1604.153" style="fill:#FFFFFF;" width="141.989" height="733.987"/>
					</g>
					
						<linearGradient id="SVGID_00000173147674785299121010000007804519403614540465_" gradientUnits="userSpaceOnUse" x1="739.3224" y1="2132.4092" x2="744.0598" y2="2620.3096">
						<stop  offset="0" style="stop-color:#FDF53F"/>
						<stop  offset="0.6645" style="stop-color:#E57A58"/>
						<stop  offset="1" style="stop-color:#D93C65"/>
					</linearGradient>
					
						<rect x="668.461" y="1954.016" style="fill:url(#SVGID_00000173147674785299121010000007804519403614540465_);" width="141.989" height="384.124"/>
					
						<linearGradient id="SVGID_00000031194768610976518390000002578367171785907891_" gradientUnits="userSpaceOnUse" x1="975.9174" y1="2130.9165" x2="980.6584" y2="2619.2024">
						<stop  offset="0" style="stop-color:#FDF53F"/>
						<stop  offset="0.6645" style="stop-color:#E57A58"/>
						<stop  offset="1" style="stop-color:#D93C65"/>
					</linearGradient>
					
						<rect x="905.711" y="2086.034" style="fill:url(#SVGID_00000031194768610976518390000002578367171785907891_);" width="141.989" height="252.107"/>
					
						<linearGradient id="SVGID_00000166641784006623961620000000018415560739028644_" gradientUnits="userSpaceOnUse" x1="1214.7419" y1="2129.8345" x2="1219.4768" y2="2617.49">
						<stop  offset="0" style="stop-color:#FDF53F"/>
						<stop  offset="0.6645" style="stop-color:#E57A58"/>
						<stop  offset="1" style="stop-color:#D93C65"/>
					</linearGradient>
					
						<rect x="1142.962" y="1759.762" style="fill:url(#SVGID_00000166641784006623961620000000018415560739028644_);" width="141.989" height="578.378"/>
					
						<linearGradient id="SVGID_00000152960171009662569020000005680831470981096333_" gradientUnits="userSpaceOnUse" x1="1449.8397" y1="2127.8584" x2="1454.5895" y2="2617.0481">
						<stop  offset="0" style="stop-color:#FDF53F"/>
						<stop  offset="0.6645" style="stop-color:#E57A58"/>
						<stop  offset="1" style="stop-color:#D93C65"/>
					</linearGradient>
					
						<rect x="1380.212" y="2199.192" style="fill:url(#SVGID_00000152960171009662569020000005680831470981096333_);" width="141.989" height="138.948"/>
					
						<linearGradient id="SVGID_00000117634712932965964270000004241168242355104919_" gradientUnits="userSpaceOnUse" x1="1688.8411" y1="2127.1353" x2="1693.5767" y2="2614.8662">
						<stop  offset="0" style="stop-color:#FDF53F"/>
						<stop  offset="0.6645" style="stop-color:#E57A58"/>
						<stop  offset="1" style="stop-color:#D93C65"/>
					</linearGradient>
					
						<rect x="1617.463" y="1837.087" style="fill:url(#SVGID_00000117634712932965964270000004241168242355104919_);" width="141.989" height="501.054"/>
					
						<linearGradient id="SVGID_00000108269965642681509460000002910456343144403115_" gradientUnits="userSpaceOnUse" x1="1925.6914" y1="2271.9089" x2="1927.1791" y2="2425.1272">
						<stop  offset="0" style="stop-color:#FDF53F"/>
						<stop  offset="0.6645" style="stop-color:#E57A58"/>
						<stop  offset="1" style="stop-color:#D93C65"/>
					</linearGradient>
					
						<rect x="1854.713" y="2208.967" style="fill:url(#SVGID_00000108269965642681509460000002910456343144403115_);" width="141.989" height="129.173"/>
					
						<linearGradient id="SVGID_00000069384205024155763070000005492953536318297737_" gradientUnits="userSpaceOnUse" x1="2162.436" y1="2124.334" x2="2167.1748" y2="2612.384">
						<stop  offset="0" style="stop-color:#FDF53F"/>
						<stop  offset="0.6645" style="stop-color:#E57A58"/>
						<stop  offset="1" style="stop-color:#D93C65"/>
					</linearGradient>
					
						<rect x="2091.964" y="2018.139" style="fill:url(#SVGID_00000069384205024155763070000005492953536318297737_);" width="141.989" height="320.001"/>
				</g>
			</g>
			<g>
				<g style="opacity:0.64;">
					<path style="fill:#FFFFFF;" d="M2508.385,2132.838h-173.091c-10.865,0-19.672,8.807-19.672,19.672
						c0,10.865,8.808,19.671,19.672,19.671h173.091c10.865,0,19.673-8.807,19.673-19.671
						C2528.058,2141.645,2519.249,2132.838,2508.385,2132.838z"/>
					<path style="fill:#FFFFFF;" d="M2772.367,2132.838h-173.091c-10.864,0-19.671,8.807-19.671,19.672
						c0,10.865,8.807,19.671,19.671,19.671h173.091c10.865,0,19.672-8.807,19.672-19.671
						C2792.038,2141.645,2783.232,2132.838,2772.367,2132.838z"/>
					<path style="fill:#FFFFFF;" d="M2863.258,2172.181h173.091c10.864,0,19.672-8.807,19.672-19.671
						c0-10.865-8.808-19.672-19.672-19.672h-173.091c-10.865,0-19.672,8.807-19.672,19.672
						C2843.586,2163.375,2852.393,2172.181,2863.258,2172.181z"/>
					<path style="fill:#FFFFFF;" d="M2508.385,2194.04h-173.091c-10.865,0-19.672,8.808-19.672,19.672v115.846
						c0,10.865,8.808,19.672,19.672,19.672h173.091c10.865,0,19.673-8.807,19.673-19.672v-115.846
						C2528.058,2202.847,2519.249,2194.04,2508.385,2194.04z"/>
					<path style="fill:#FFFFFF;" d="M2772.367,2194.04h-173.091c-10.864,0-19.671,8.808-19.671,19.672v115.846
						c0,10.865,8.807,19.672,19.671,19.672h173.091c10.865,0,19.672-8.807,19.672-19.672v-115.846
						C2792.038,2202.847,2783.232,2194.04,2772.367,2194.04z"/>
					<path style="fill:#FFFFFF;" d="M3036.348,2194.04h-173.091c-10.865,0-19.672,8.808-19.672,19.672v115.846
						c0,10.865,8.807,19.672,19.672,19.672h173.091c10.864,0,19.672-8.807,19.672-19.672v-115.846
						C3056.02,2202.847,3047.212,2194.04,3036.348,2194.04z"/>
				</g>
				<path style="opacity:0.6;fill:#FFFFFF;" d="M3036.587,2079.831h-735.801c-6.124,0-11.089-4.965-11.089-11.089v-207.037
					c0-6.124,4.965-11.089,11.089-11.089h735.801c6.124,0,11.089,4.965,11.089,11.089v207.037
					C3047.676,2074.866,3042.711,2079.831,3036.587,2079.831z"/>
			</g>
			<path style="opacity:0.6;fill:#FFFFFF;" d="M2649.715,1799.715h-303.941c-7.313,0-13.241-5.928-13.241-13.242v-568.515
				c0-7.313,5.928-13.242,13.241-13.242h303.941c7.313,0,13.241,5.928,13.241,13.242v568.515
				C2662.957,1793.786,2657.028,1799.715,2649.715,1799.715z"/>
			<path style="opacity:0.6;fill:#FFFFFF;" d="M3011.445,1799.715h-303.941c-7.313,0-13.242-5.928-13.242-13.242v-568.515
				c0-7.313,5.928-13.242,13.242-13.242h303.941c7.313,0,13.241,5.928,13.241,13.242v568.515
				C3024.686,1793.786,3018.758,1799.715,3011.445,1799.715z"/>
		</g>
		<g>
			
				<linearGradient id="SVGID_00000021831583387193164230000007155959240984240795_" gradientUnits="userSpaceOnUse" x1="7603.9897" y1="3038.2646" x2="7052.0625" y2="3638.6067" gradientTransform="matrix(1 0.0095 -0.0095 1 -6542.1279 -63.4747)">
				<stop  offset="0" style="stop-color:#2B3582"/>
				<stop  offset="1" style="stop-color:#150E42"/>
			</linearGradient>
			<path style="fill:url(#SVGID_00000021831583387193164230000007155959240984240795_);" d="M858.108,3090.085
				c0,0-6.025,32.305-9.133,64.312c-1.215,12.508,8.333,23.47,20.884,24.114c42.641,2.183,133.856,6.509,166.613,5.36
				c4.924-0.173,8.19-5.181,6.413-9.776l0,0c-1.49-3.851-4.404-6.981-8.14-8.741l-150.063-70.71L858.108,3090.085z"/>
			
				<linearGradient id="SVGID_00000116223905870052310870000010157302178078443436_" gradientUnits="userSpaceOnUse" x1="7424.8423" y1="3082.8474" x2="7473.8677" y2="3082.8474" gradientTransform="matrix(1 0.0095 -0.0095 1 -6542.1279 -63.4747)">
				<stop  offset="0" style="stop-color:#F9B776"/>
				<stop  offset="1" style="stop-color:#F47960"/>
			</linearGradient>
			<path style="fill:url(#SVGID_00000116223905870052310870000010157302178078443436_);" d="M853.607,3071.027l4.223,38.75
				c0,0,26.286,12.543,44.449-1.125l-10.522-43.239L853.607,3071.027z"/>
			
				<linearGradient id="SVGID_00000096755879781712074820000016202043968649978012_" gradientUnits="userSpaceOnUse" x1="740.6744" y1="3200.5754" x2="877.3647" y2="2413.4255">
				<stop  offset="0" style="stop-color:#CB236D"/>
				<stop  offset="1" style="stop-color:#4C246D"/>
			</linearGradient>
			<path style="fill:url(#SVGID_00000096755879781712074820000016202043968649978012_);" d="M864.001,2343.362
				c-2.08,10.089-15.46,504.313,35.264,726.333c0.828,3.622-1.04,7.331-4.493,8.704c-8.136,3.233-24.069,7.877-43.116,8.334
				c-5.898,0.142-11.148-3.741-12.758-9.416c-14.613-51.539-84.53-309.733-91.624-555.809c-7.927-274.966,0.09-9.359,0.09-9.359
				l7.808-169.845L864.001,2343.362z"/>
			
				<linearGradient id="SVGID_00000127761913194444753480000002915076619740768938_" gradientUnits="userSpaceOnUse" x1="7480.1738" y1="2924.4143" x2="6928.2241" y2="3524.7817" gradientTransform="matrix(1 0.0095 -0.0095 1 -6542.1279 -63.4747)">
				<stop  offset="0" style="stop-color:#2B3582"/>
				<stop  offset="1" style="stop-color:#150E42"/>
			</linearGradient>
			<path style="fill:url(#SVGID_00000127761913194444753480000002915076619740768938_);" d="M684.564,3105.313
				c0,0-9.255,16.25-18.478,59.575c-1.666,7.825,3.741,15.38,11.694,16.239c14.073,1.52,35.74,3.508,53.112,3.554
				c8.007,0.021,14.323-6.892,13.434-14.85c-1.773-15.863-7.519-41.917-25.842-62.356L684.564,3105.313z"/>
			
				<linearGradient id="SVGID_00000089539971238810690530000017292022307897118118_" gradientUnits="userSpaceOnUse" x1="7248.1514" y1="3080.3262" x2="7290.4785" y2="3080.3262" gradientTransform="matrix(1 0.0095 -0.0095 1 -6542.1279 -63.4747)">
				<stop  offset="0" style="stop-color:#F9B776"/>
				<stop  offset="1" style="stop-color:#F47960"/>
			</linearGradient>
			<path style="fill:url(#SVGID_00000089539971238810690530000017292022307897118118_);" d="M677.048,3055.451l10.172,58.637
				c0,0,10.535,7.993,31.579,2.472l-4.521-63.028L677.048,3055.451z"/>
			
				<linearGradient id="SVGID_00000132047983059655916680000008340129812881291137_" gradientUnits="userSpaceOnUse" x1="620.8193" y1="3179.7622" x2="757.5089" y2="2392.6165">
				<stop  offset="0" style="stop-color:#CB236D"/>
				<stop  offset="1" style="stop-color:#4C246D"/>
			</linearGradient>
			<path style="fill:url(#SVGID_00000132047983059655916680000008340129812881291137_);" d="M654.723,2356.535
				c-45.702,260.389,3.224,644.679,20.244,719.965c1.042,4.61,4.72,8.168,9.374,8.986c7.904,1.387,20.928,2.583,33.814-1.027
				c4.439-1.243,7.588-5.207,7.812-9.812c2.959-60.707,2.234-433.569,43.904-580.525c2.112-7.448,6.734-13.917,13.086-18.342
				l78.683-54.813l6.849-89.751L654.723,2356.535z"/>
			<g>
				
					<linearGradient id="SVGID_00000113312033055723039130000003177635305833230209_" gradientUnits="userSpaceOnUse" x1="959.7654" y1="1826.9093" x2="497.7755" y2="2543.4641">
					<stop  offset="0" style="stop-color:#A737D5"/>
					<stop  offset="1" style="stop-color:#EF497A"/>
				</linearGradient>
				<path style="fill:url(#SVGID_00000113312033055723039130000003177635305833230209_);" d="M934.799,1864.996
					c-129.484-3.375-272.722,31.405-272.722,31.405c-40.752,224.876-11.378,484.985-11.378,484.985
					c100.008,27.249,213.51-14.04,213.51-14.04c17.562-93.988,97.839-358.207,97.839-358.207
					c63.35-7.249,115.65-25.008,158.805-48.734c-32.38-38.267-47.356-86.708-53.787-115.32
					C1021.142,1858.878,974.737,1866.037,934.799,1864.996z"/>
				
					<linearGradient id="SVGID_00000069380180402245362240000009488805140437884825_" gradientUnits="userSpaceOnUse" x1="7626.6372" y1="1803.8121" x2="7877.1128" y2="1803.8121" gradientTransform="matrix(1 0.0095 -0.0095 1 -6542.1279 -63.4747)">
					<stop  offset="0" style="stop-color:#F9B776"/>
					<stop  offset="1" style="stop-color:#F47960"/>
				</linearGradient>
				<path style="fill:url(#SVGID_00000069380180402245362240000009488805140437884825_);" d="M1319.153,1677.892
					c-12.575-15.488-28.746-8.372-28.746-8.372c-19.826,80.32-120.375,144.639-223.34,175.565
					c6.431,28.612,21.407,77.053,53.787,115.32C1292.143,1866.235,1319.153,1677.892,1319.153,1677.892z"/>
			</g>
			<g>
				
					<linearGradient id="SVGID_00000103979766669529022760000006736019419249515686_" gradientUnits="userSpaceOnUse" x1="2625.4167" y1="1760.9003" x2="2793.488" y2="2143.3003" gradientTransform="matrix(-1 -0.0095 -0.0095 1 3904.5981 36.7017)">
					<stop  offset="0" style="stop-color:#F9B776"/>
					<stop  offset="1" style="stop-color:#F47960"/>
				</linearGradient>
				<path style="fill:url(#SVGID_00000103979766669529022760000006736019419249515686_);" d="M1316.028,1681.77
					c1.291,4.245-14.186,10.542-23.097-6.853c-0.237-8.298-4.943-43.883,0.078-50.594c26.742-35.738,78.354-80.366,78.354-80.366
					c8.569,8.618,1.363,16.935,1.363,16.935l-25.076,25.628c5.104,9.434,11.364,17.416,14.224,28.796
					c2.166,8.618,0.703,17.791-3.714,25.574c-4.433,7.81-10.477,17.96-16.174,25.894
					C1331.201,1681.801,1316.028,1681.77,1316.028,1681.77z"/>
				
					<linearGradient id="SVGID_00000062880273497512769830000008346777732084262041_" gradientUnits="userSpaceOnUse" x1="7875.9121" y1="1634.4797" x2="7946.0425" y2="1526.6543" gradientTransform="matrix(1 0.0095 -0.0095 1 -6542.1279 -63.4747)">
					<stop  offset="0" style="stop-color:#F9B776"/>
					<stop  offset="1" style="stop-color:#F47960"/>
				</linearGradient>
				<path style="fill:url(#SVGID_00000062880273497512769830000008346777732084262041_);" d="M1336.629,1603.199l-22.809,18.965
					l-7.286,19.029l19.96,22.572c0,0,7.144-37.827,12.264-45.98C1343.877,1609.632,1341.301,1605.642,1336.629,1603.199z"/>
			</g>
			
				<linearGradient id="SVGID_00000031916680175779885200000012591976982977644712_" gradientUnits="userSpaceOnUse" x1="813.0873" y1="1732.3409" x2="351.0987" y2="2448.8936">
				<stop  offset="0" style="stop-color:#A737D5"/>
				<stop  offset="1" style="stop-color:#EF497A"/>
			</linearGradient>
			<path style="fill:url(#SVGID_00000031916680175779885200000012591976982977644712_);" d="M710.553,2022.273l-48.476-125.872
				c0,0-121.749,81.036-142.636,185.054c22.84,1.902,64.374,8.243,104.888,29.188
				C633.744,2061.523,710.553,2022.273,710.553,2022.273z"/>
			
				<linearGradient id="SVGID_00000056391117011244457470000002100035968870106543_" gradientUnits="userSpaceOnUse" x1="7078.5479" y1="2158.5696" x2="7395.5161" y2="2158.5696" gradientTransform="matrix(1 0.0095 -0.0095 1 -6542.1279 -63.4747)">
				<stop  offset="0" style="stop-color:#F9B776"/>
				<stop  offset="1" style="stop-color:#F47960"/>
			</linearGradient>
			<path style="fill:url(#SVGID_00000056391117011244457470000002100035968870106543_);" d="M815.137,2141.278
				c0,0-136.545,75.459-181.745,9.482c-9.384-13.7-11.53-27.246-9.063-40.118c-40.514-20.944-82.048-27.286-104.888-29.188
				c-6.297,31.358-3.446,64.801,14.692,98.746c78.87,147.604,298.658-5.266,298.658-5.266L815.137,2141.278z"/>
			
				<linearGradient id="SVGID_00000153680759164417725990000005033028691236822699_" gradientUnits="userSpaceOnUse" x1="7321.9468" y1="1819.7169" x2="7447.271" y2="1819.7169" gradientTransform="matrix(1 0.0095 -0.0095 1 -6542.1279 -63.4747)">
				<stop  offset="0" style="stop-color:#F9B776"/>
				<stop  offset="1" style="stop-color:#F47960"/>
			</linearGradient>
			<path style="fill:url(#SVGID_00000153680759164417725990000005033028691236822699_);" d="M804.625,1758.607l-42.344,118.773
				c-0.701,1.967,0.089,4.161,1.908,5.19c11.173,6.317,51.47,24.654,100.533-5.8c5.111-3.173,8.62-8.393,9.448-14.351
				l14.327-103.011L804.625,1758.607z"/>
			<g>
				
					<linearGradient id="SVGID_00000076592183698726140690000016404394635673643409_" gradientUnits="userSpaceOnUse" x1="60.425" y1="3463.4001" x2="13.5932" y2="3308.938" gradientTransform="matrix(0.7523 -0.6588 0.6588 0.7523 -1408.7249 -818.1582)">
					<stop  offset="0" style="stop-color:#F9B776"/>
					<stop  offset="1" style="stop-color:#F47960"/>
				</linearGradient>
				<path style="fill:url(#SVGID_00000076592183698726140690000016404394635673643409_);" d="M895.336,1649.111
					c0,0,44.437,85.608,38.308,119.959c-6.128,34.351-62.184,31.346-110.887,2.935l-33.341-92.298L895.336,1649.111z"/>
				
					<linearGradient id="SVGID_00000173124020431585811100000010527832085415410867_" gradientUnits="userSpaceOnUse" x1="18.1767" y1="3194.2722" x2="57.3507" y2="3417.709" gradientTransform="matrix(0.7523 -0.6588 0.6588 0.7523 -1408.7249 -818.1582)">
					<stop  offset="0" style="stop-color:#2B3582"/>
					<stop  offset="1" style="stop-color:#150E42"/>
				</linearGradient>
				<path style="fill:url(#SVGID_00000173124020431585811100000010527832085415410867_);" d="M825.353,1726.859
					c1.998-0.862,2.756-3.292,1.582-5.124c-3.573-5.573-10.26-16.936-12.335-26.849c0,0-8.084-5.287,20.819-11.914
					c28.904-6.627,72.012-16.931,81.285-41.391c9.041-23.849-13.54-84.255-50.941-36.652c-1.423,1.812-4.176,1.825-5.563-0.015
					c-5.98-7.94-21.746-24.453-43.947-14.745c-20.775,9.085-23.25,24.221-23.038,31.864c0.062,2.248-1.964,3.977-4.169,3.534
					c-10.44-2.095-35.522-4.047-47.483,21.588c-9.851,21.115-3.694,33.18,1.962,39.105c1.832,1.92,0.991,5.045-1.554,5.797
					c-6.894,2.039-15.825,7.783-15.091,23.896c1.016,22.275,25.927,20.551,33.023,19.604c1.163-0.154,2.329,0.255,3.107,1.132
					c6.013,6.782,33.118,35.597,62.717,39.321c2.563,0.323,4.576-2.192,3.759-4.643l-12.468-37.399
					c-0.579-1.737,0.268-3.628,1.948-4.354L825.353,1726.859z"/>
				
					<linearGradient id="SVGID_00000177462118521407459940000007550104785768565130_" gradientUnits="userSpaceOnUse" x1="12.5524" y1="3462.6792" x2="-29.583" y2="3323.7065" gradientTransform="matrix(0.7523 -0.6588 0.6588 0.7523 -1408.7249 -818.1582)">
					<stop  offset="0" style="stop-color:#F9B776"/>
					<stop  offset="1" style="stop-color:#F47960"/>
				</linearGradient>
				<path style="fill:url(#SVGID_00000177462118521407459940000007550104785768565130_);" d="M830.458,1732.199
					c0,0-32.007-22.412-34.539-3.819c-2.531,18.592,28.755,27.24,44.357,20.447L830.458,1732.199z"/>
			</g>
			<g>
				<g>
					
						<linearGradient id="SVGID_00000083086589532392081430000014783525723880803215_" gradientUnits="userSpaceOnUse" x1="7191.7144" y1="1960.9385" x2="7366.6172" y2="2689.7014" gradientTransform="matrix(1 0 0 1 -6273.8389 0)">
						<stop  offset="0" style="stop-color:#2B3582"/>
						<stop  offset="1" style="stop-color:#150E42"/>
					</linearGradient>
					<path style="fill:url(#SVGID_00000083086589532392081430000014783525723880803215_);" d="M787.231,2260.532l74.382-259.758
						c0.845-2.949,3.36-5.099,6.407-5.454c13.476-1.573,52.527-5.987,97.614-9.801c54.309-4.594,117.379-8.316,155.067-5.15
						c5.358,0.45,8.596,6.117,6.213,10.937c-21.431,43.359-109.588,219.734-153.734,277.512c-1.463,1.914-3.725,3.033-6.133,3.011
						l-172.578-1.605C789.446,2270.178,785.849,2265.361,787.231,2260.532z"/>
					
						<linearGradient id="SVGID_00000161610766151861037170000007807456153845547188_" gradientUnits="userSpaceOnUse" x1="7071.8662" y1="2153.7349" x2="7170.9619" y2="2153.7349" gradientTransform="matrix(1 0 0 1 -6273.8389 0)">
						<stop  offset="0" style="stop-color:#F9B776"/>
						<stop  offset="1" style="stop-color:#F47960"/>
					</linearGradient>
					<path style="fill:url(#SVGID_00000161610766151861037170000007807456153845547188_);" d="M805.202,2197.775
						c0,0-10.362-42.606-6.182-57.721c4.18-15.116,12.278-34.551,39.27-30.232c26.993,4.318,58.833,15.69,58.833,15.69
						s-1.608,19.689-22.123,13.336l12.722,9.844c0,0-1.818,15.764-19.147,7.343l11.832,13.054c0,0-7.442,12.948-20.191,4.644
						C847.468,2165.427,841.356,2202.906,805.202,2197.775z"/>
				</g>
				
					<linearGradient id="SVGID_00000137833490301783100390000011880132628967207581_" gradientUnits="userSpaceOnUse" x1="5013.1191" y1="2038.6666" x2="5039.2583" y2="2147.5793" gradientTransform="matrix(-1 0 0 1 6001.4834 0)">
					<stop  offset="0" style="stop-color:#53D8FF"/>
					<stop  offset="1" style="stop-color:#3840F7"/>
				</linearGradient>
				<path style="fill:url(#SVGID_00000137833490301783100390000011880132628967207581_);" d="M960.675,2063.063
					c0,12.059,9.776,21.834,21.835,21.834c12.058,0,21.834-9.775,21.834-21.834c0-12.06-9.776-21.834-21.834-21.834
					C970.45,2041.229,960.675,2051.003,960.675,2063.063z"/>
				<path style="fill:#FFFFFF;" d="M870.029,2077.456l-5.566-1.644l15.143-51.372c2.471-8.366,9.225-14.652,17.622-16.398
					c48.002-10.022,174.427-12.063,179.783-12.147l0.091,5.804c-1.307,0.017-131.228,2.12-178.689,12.023
					c-6.303,1.315-11.377,6.048-13.241,12.363L870.029,2077.456z"/>
			</g>
		</g>
		<g>
			<g>
				
					<linearGradient id="SVGID_00000046317238855805326100000006000182571106129562_" gradientUnits="userSpaceOnUse" x1="3166.5688" y1="1814.8872" x2="3160.0188" y2="4055.3643">
					<stop  offset="0" style="stop-color:#53D8FF"/>
					<stop  offset="1" style="stop-color:#3840F7"/>
				</linearGradient>
				<path style="fill:url(#SVGID_00000046317238855805326100000006000182571106129562_);" d="M3159.067,2750.832
					c8.264,12.229,41.112,289.123,46.253,391.388c0.348,6.915-5.184,12.682-12.109,12.682l0,0c-5.972,0-11.053-4.35-11.974-10.25
					l-60.08-385.013L3159.067,2750.832z"/>
				
					<linearGradient id="SVGID_00000033331946756813190550000009952218888460230029_" gradientUnits="userSpaceOnUse" x1="2894.1184" y1="1814.093" x2="2887.5684" y2="4054.5698">
					<stop  offset="0" style="stop-color:#53D8FF"/>
					<stop  offset="1" style="stop-color:#3840F7"/>
				</linearGradient>
				<path style="fill:url(#SVGID_00000033331946756813190550000009952218888460230029_);" d="M2894.974,2750.832
					c-8.265,12.229-41.112,289.123-46.253,391.388c-0.348,6.915,5.183,12.682,12.109,12.682l0,0c5.971,0,11.053-4.35,11.973-10.25
					l60.081-385.013L2894.974,2750.832z"/>
				
					<linearGradient id="SVGID_00000133507852178760783480000011020998245846864287_" gradientUnits="userSpaceOnUse" x1="3029.8132" y1="1814.4906" x2="3023.2632" y2="4054.9651">
					<stop  offset="0" style="stop-color:#53D8FF"/>
					<stop  offset="1" style="stop-color:#3840F7"/>
				</linearGradient>
				<path style="fill:url(#SVGID_00000133507852178760783480000011020998245846864287_);" d="M3208.756,2729.222l0.028,3.019
					c0.198,21.723-18.516,39.541-41.948,39.94l-277.704,4.723c-23.095,0.393-42.347-16.297-43.467-37.683l-0.145-2.763
					c-1.168-22.304,17.772-41.094,41.857-41.526l277.822-4.979C3188.976,2689.526,3208.555,2707.177,3208.756,2729.222z"/>
			</g>
			<g>
				<g>
					
						<linearGradient id="SVGID_00000165227632325930116400000012244532432741112965_" gradientUnits="userSpaceOnUse" x1="-5605.5391" y1="3137.8701" x2="-5404.1694" y2="3137.8701" gradientTransform="matrix(-1 0 0 1 -2838.5674 0)">
						<stop  offset="0" style="stop-color:#CB236D"/>
						<stop  offset="1" style="stop-color:#4C246D"/>
					</linearGradient>
					<path style="fill:url(#SVGID_00000165227632325930116400000012244532432741112965_);" d="M2685.997,3138.714
						c49.366,0,71.208-4.235,80.974-8.098c-1.898,8.107-9.119,14.507-18.244,14.507h-174.641c-5.881,0-9.593-5.629-8.188-10.726
						C2585.807,3135.998,2628.088,3138.714,2685.997,3138.714z"/>
					
						<linearGradient id="SVGID_00000180342314024717634740000010100875452191954596_" gradientUnits="userSpaceOnUse" x1="-5450.3921" y1="2750.6636" x2="-5505.4111" y2="3130.7961" gradientTransform="matrix(-1 0 0 1 -2838.5674 0)">
						<stop  offset="0" style="stop-color:#CB236D"/>
						<stop  offset="1" style="stop-color:#4C246D"/>
					</linearGradient>
					<path style="fill:url(#SVGID_00000180342314024717634740000010100875452191954596_);" d="M2565.899,3134.397
						c0.283-1.028,0.699-2.039,1.43-2.972c13.303-16.984,40.027-43.658,76.379-43.146c53.254,0.75,71.821,6.526,113.205,0.324
						l9.763,32.36c0.994,3.299,1.012,6.594,0.296,9.653c-9.766,3.863-31.608,8.098-80.974,8.098
						C2628.088,3138.714,2585.807,3135.998,2565.899,3134.397z"/>
				</g>
				
					<linearGradient id="SVGID_00000110445295827163376200000014075529194106839457_" gradientUnits="userSpaceOnUse" x1="-5595.48" y1="3077.187" x2="-5540.9956" y2="3077.187" gradientTransform="matrix(-1 0 0 1 -2838.5674 0)">
					<stop  offset="0" style="stop-color:#F9B776"/>
					<stop  offset="1" style="stop-color:#F47960"/>
				</linearGradient>
				<path style="fill:url(#SVGID_00000110445295827163376200000014075529194106839457_);" d="M2744.928,3053.732l11.984,40.757
					c0,0-26.549,12.086-49.9,2.383l-4.585-35.312L2744.928,3053.732z"/>
				<g>
					
						<linearGradient id="SVGID_00000067939367502915770600000007186533428160210569_" gradientUnits="userSpaceOnUse" x1="-5289.7017" y1="3097.9641" x2="-5127.1187" y2="3097.9641" gradientTransform="matrix(-1 0 0 1 -2838.5674 0)">
						<stop  offset="0" style="stop-color:#CB236D"/>
						<stop  offset="1" style="stop-color:#4C246D"/>
					</linearGradient>
					<path style="fill:url(#SVGID_00000067939367502915770600000007186533428160210569_);" d="M2382.964,3113.047
						c38.482,30.92,58.149,41.316,68.17,44.436c-6.534,5.101-16.151,5.544-23.265-0.171l-136.14-109.386
						c-4.584-3.684-3.969-10.377,0.304-13.451C2306.554,3048.185,2337.822,3076.775,2382.964,3113.047z"/>
					
						<linearGradient id="SVGID_00000079485574378999339250000002512965315133117631_" gradientUnits="userSpaceOnUse" x1="-5177.8691" y1="2790.1042" x2="-5232.8887" y2="3170.2397" gradientTransform="matrix(-1 0 0 1 -2838.5674 0)">
						<stop  offset="0" style="stop-color:#CB236D"/>
						<stop  offset="1" style="stop-color:#4C246D"/>
					</linearGradient>
					<path style="fill:url(#SVGID_00000079485574378999339250000002512965315133117631_);" d="M2292.033,3034.474
						c0.862-0.62,1.817-1.144,2.968-1.41c20.958-4.844,58.418-8.801,86.437,14.365c41.046,33.938,51.918,50.05,88.044,71.158
						l-12.561,31.222c-1.281,3.182-3.321,5.75-5.788,7.675c-10.02-3.12-29.688-13.515-68.17-44.436
						C2337.822,3076.775,2306.554,3048.185,2292.033,3034.474z"/>
				</g>
				
					<linearGradient id="SVGID_00000137816733684720990910000009349121853373207936_" gradientUnits="userSpaceOnUse" x1="-5896.752" y1="2831.3386" x2="-5465.4463" y2="2831.3386" gradientTransform="matrix(-1 0 0 1 -2838.5674 0)">
					<stop  offset="0" style="stop-color:#2B3582"/>
					<stop  offset="1" style="stop-color:#150E42"/>
				</linearGradient>
				<path style="fill:url(#SVGID_00000137816733684720990910000009349121853373207936_);" d="M3001.285,2589.371
					c0,0-295.554,24.132-356.185,52.674c-60.631,28.542,49.478,428.572,49.478,428.572s16.506,7.944,53.234-3.474
					c0,0-37.663-295.207-9.637-359.219l320.01-52.342L3001.285,2589.371z"/>
				
					<linearGradient id="SVGID_00000087414539804994124570000009518098396647487647_" gradientUnits="userSpaceOnUse" x1="-5337.4165" y1="3081.7727" x2="-5272.3696" y2="3081.7727" gradientTransform="matrix(-1 0 0 1 -2838.5674 0)">
					<stop  offset="0" style="stop-color:#F9B776"/>
					<stop  offset="1" style="stop-color:#F47960"/>
				</linearGradient>
				<path style="fill:url(#SVGID_00000087414539804994124570000009518098396647487647_);" d="M2498.849,3062.394
					c-2.744,2.5-29.366,56.192-29.366,56.192s-29.637-6.412-35.681-25.168l26.667-48.459L2498.849,3062.394z"/>
				
					<linearGradient id="SVGID_00000042715768509264651160000006736123007278710658_" gradientUnits="userSpaceOnUse" x1="-5760.3921" y1="2941.2327" x2="-6233.8945" y2="3478.0906" gradientTransform="matrix(-1 0 0 1 -2838.5674 0)">
					<stop  offset="0" style="stop-color:#2B3582"/>
					<stop  offset="1" style="stop-color:#150E42"/>
				</linearGradient>
				<path style="fill:url(#SVGID_00000042715768509264651160000006736123007278710658_);" d="M3179.294,2586.901
					c0,0,9.632,23.175,9.239,53.972c-0.543,42.592-34.785,77.154-77.327,79.277l-349.394,15.933
					c-7.379,0.336-13.621,5.443-15.47,12.594c-8.21,31.758-48.342,129.281-244.514,323.882c-5.219,5.177-13.35,6.059-19.565,2.132
					l-27.926-17.64c-2.932-1.852-3.867-5.695-2.115-8.687l203.435-347.396c10.685-17.633,27.861-30.372,47.837-35.478
					l297.791-76.121L3179.294,2586.901z"/>
				
					<linearGradient id="SVGID_00000157298310796832208180000006286195929961846947_" gradientUnits="userSpaceOnUse" x1="-5698.728" y1="2165.1611" x2="-5666.6592" y2="2084.2917" gradientTransform="matrix(-1 0 0 1 -2838.5674 0)">
					<stop  offset="0" style="stop-color:#F9B776"/>
					<stop  offset="1" style="stop-color:#F47960"/>
				</linearGradient>
				<path style="fill:url(#SVGID_00000157298310796832208180000006286195929961846947_);" d="M2834.971,2044.238
					c0,0,37.428,66.177,75.59,98.237l-78.877,44.009c0,0-17.774-70.057-58.381-90.573L2834.971,2044.238z"/>
				
					<linearGradient id="SVGID_00000060737511857933373470000000750506545847821492_" gradientUnits="userSpaceOnUse" x1="-5831.375" y1="2348.948" x2="-5478.1714" y2="2928.7913" gradientTransform="matrix(-1 0 0 1 -2838.5674 0)">
					<stop  offset="0" style="stop-color:#A737D5"/>
					<stop  offset="1" style="stop-color:#EF497A"/>
				</linearGradient>
				<path style="fill:url(#SVGID_00000060737511857933373470000000750506545847821492_);" d="M3185.641,2589.371
					c0,0-94.324,22.987-184.356,0c0,0-125.98-169.355-174.72-215.448c0,0-77.743,122.678-250.785,140.063l-9.651-21.565
					c0,0,137.76-63.504,180.17-161.08c42.41-97.576,59.444-139.193,98.027-164.651c24.03-15.855,38.417-26.686,45.852-32.6
					c4.071-3.239,9.689-3.605,14.131-0.898C2945.256,2158.144,3137.924,2290.101,3185.641,2589.371z"/>
				
					<linearGradient id="SVGID_00000143604886910704363900000007072963592340406913_" gradientUnits="userSpaceOnUse" x1="3582.8921" y1="699.3029" x2="2020.2972" y2="4188.1157">
					<stop  offset="0" style="stop-color:#CB236D"/>
					<stop  offset="1" style="stop-color:#4C246D"/>
				</linearGradient>
				<path style="fill:url(#SVGID_00000143604886910704363900000007072963592340406913_);" d="M2831.679,2371.536
					c1.817,0,3.613-0.815,4.804-2.369c30.038-39.166,46.767-82.338,47.464-84.152c1.196-3.119-0.361-6.617-3.48-7.817
					c-3.125-1.199-6.618,0.361-7.817,3.48c-0.165,0.431-16.836,43.397-45.769,81.127c-2.033,2.653-1.534,6.446,1.119,8.485
					C2829.098,2371.128,2830.394,2371.536,2831.679,2371.536z"/>
				
					<linearGradient id="SVGID_00000061448561660310541870000000506004503771017643_" gradientUnits="userSpaceOnUse" x1="-5424.7515" y1="2479.6663" x2="-5274.502" y2="2479.6663" gradientTransform="matrix(-1 0 0 1 -2838.5674 0)">
					<stop  offset="0" style="stop-color:#F9B776"/>
					<stop  offset="1" style="stop-color:#F47960"/>
				</linearGradient>
				<path style="fill:url(#SVGID_00000061448561660310541870000000506004503771017643_);" d="M2586.184,2481.157l-19.478-5.192
					l-59.138-13.694c-7.119-1.649-14.601-0.387-20.787,3.504l-50.847,31.992l140.422-0.237L2586.184,2481.157z"/>
				<g>
					
						<linearGradient id="SVGID_00000150073807339036889230000007895806800616575895_" gradientUnits="userSpaceOnUse" x1="-3642.124" y1="1600.1793" x2="-3803.1384" y2="1723.3799" gradientTransform="matrix(-0.9914 -0.1306 -0.1306 0.9914 -639.5688 -61.3823)">
						<stop  offset="0" style="stop-color:#F9B776"/>
						<stop  offset="1" style="stop-color:#F47960"/>
					</linearGradient>
					<path style="fill:url(#SVGID_00000150073807339036889230000007895806800616575895_);" d="M2775.542,1945.005
						c0,0-36.375,60.466-42.686,93.887c-6.311,33.42-16.444,54.311,21.592,66.219c38.036,11.909,73.385-3.163,95.57-34.359
						c0,0,34.645-48.01,31.189-69.995C2877.75,1978.771,2775.542,1945.005,2775.542,1945.005z"/>
					
						<linearGradient id="SVGID_00000120539761079079507650000007315083955559838906_" gradientUnits="userSpaceOnUse" x1="-3755.2439" y1="1502.9247" x2="-3609.4407" y2="1690.6462" gradientTransform="matrix(-0.9914 -0.1306 -0.1306 0.9914 -639.5688 -61.3823)">
						<stop  offset="0" style="stop-color:#2B3582"/>
						<stop  offset="1" style="stop-color:#150E42"/>
					</linearGradient>
					<path style="fill:url(#SVGID_00000120539761079079507650000007315083955559838906_);" d="M2839.891,2044.887l-4.92-0.649
						c0,0,25.757-38.92,8.903-48.574c-16.854-9.654-85.532-33.344-97.46-60.393c-11.498-26.075,5.702-55.535,26.438-61.681
						c1.312-0.389,2.697,0.387,3.172,1.67l1.219,3.284c0.833,2.249,3.981,2.339,4.943,0.142l0,0c0.912-2.084,3.895-2.172,4.835-0.1
						c3.675,8.103,14.691,21.943,47.72,32.651c46.865,15.193,76.058,38.816,72.465,72.115c-0.227,2.109,1.868,3.565,3.808,2.707
						c3.831-1.694,9.639-1.96,16.383,5.416c11.728,12.828,2.541,40.884-29.49,60.739c-1.522,0.943-1.793,3.09-0.433,4.254
						c4.792,4.103,11.533,13.251-10.138,21.406c-22.169,8.342-34.266,5.52-38.736,3.727c-1.203-0.483-1.889-1.727-1.642-2.999
						l5.693-29.178c0.295-1.509-0.745-2.954-2.269-3.155L2839.891,2044.887z"/>
					
						<linearGradient id="SVGID_00000180331203576559099710000008085449259244349354_" gradientUnits="userSpaceOnUse" x1="-3662.0967" y1="1574.0786" x2="-3823.1099" y2="1697.2784" gradientTransform="matrix(-0.9914 -0.1306 -0.1306 0.9914 -639.5688 -61.3823)">
						<stop  offset="0" style="stop-color:#F9B776"/>
						<stop  offset="1" style="stop-color:#F47960"/>
					</linearGradient>
					<path style="fill:url(#SVGID_00000180331203576559099710000008085449259244349354_);" d="M2837.872,2050.882
						c0,0,16.051-39.571,32.908-25.662c16.857,13.909-15.582,44.655-30.554,44.242L2837.872,2050.882z"/>
				</g>
			</g>
			<g>
				<g>
					
						<linearGradient id="SVGID_00000031180697123784689620000015323747334331535025_" gradientUnits="userSpaceOnUse" x1="24547.8105" y1="-21396.5254" x2="24145.9785" y2="-21008.0332" gradientTransform="matrix(1.388 -0.0686 0.0685 1.3855 2282.7898 -570.6171)">
						<stop  offset="0" style="stop-color:#2B3582"/>
						<stop  offset="1" style="stop-color:#150E42"/>
					</linearGradient>
					<path style="fill:url(#SVGID_00000031180697123784689620000015323747334331535025_);" d="M2745.651,2517.99
						c-0.229,0.012-0.459,0.018-0.69,0.016l-299.988-0.299c-7.416-0.006-13.42-6.013-13.412-13.415
						c0.008-7.405,6.048-13.523,13.444-13.39l299.988,0.3c7.416,0.005,13.42,6.012,13.412,13.414
						C2758.396,2511.788,2752.746,2517.64,2745.651,2517.99z"/>
				</g>
				<g>
					
						<linearGradient id="SVGID_00000078042266813376219860000010175466338332346027_" gradientUnits="userSpaceOnUse" x1="14888.0078" y1="-17596.2109" x2="14486.1924" y2="-17207.7344" gradientTransform="matrix(-0.6475 -1.2297 1.2274 -0.6463 -11183.3545 -5472.2012)">
						<stop  offset="0" style="stop-color:#2B3582"/>
						<stop  offset="1" style="stop-color:#150E42"/>
					</linearGradient>
					<path style="fill:url(#SVGID_00000078042266813376219860000010175466338332346027_);" d="M2328.798,2224.208
						c0.107,0.203,0.209,0.408,0.305,0.619l126.222,272.141c3.122,6.727,0.208,14.704-6.508,17.818
						c-6.718,3.115-14.812,0.218-17.81-6.544l-126.222-272.14c-3.122-6.727-0.207-14.704,6.508-17.818
						C2317.799,2215.267,2325.487,2217.923,2328.798,2224.208z"/>
				</g>
			</g>
			<g>
				<g>
					
						<linearGradient id="SVGID_00000062875834934522347540000011171511496241315726_" gradientUnits="userSpaceOnUse" x1="2059.1082" y1="1876.0673" x2="2052.8691" y2="4010.2314">
						<stop  offset="0" style="stop-color:#53D8FF"/>
						<stop  offset="1" style="stop-color:#3840F7"/>
					</linearGradient>
					
						<rect x="2041.295" y="2828.197" style="fill:url(#SVGID_00000062875834934522347540000011171511496241315726_);" width="29.138" height="315.107"/>
					
						<linearGradient id="SVGID_00000102528809717552171530000000983507181144645251_" gradientUnits="userSpaceOnUse" x1="2059.5862" y1="1876.0782" x2="2053.3472" y2="4010.2253">
						<stop  offset="0" style="stop-color:#53D8FF"/>
						<stop  offset="1" style="stop-color:#3840F7"/>
					</linearGradient>
					<path style="fill:url(#SVGID_00000102528809717552171530000000983507181144645251_);" d="M2183.466,3149.379h-255.204l0,0
						c0-10.475,8.492-18.967,18.967-18.967h217.27C2174.974,3130.412,2183.466,3138.903,2183.466,3149.379L2183.466,3149.379z"/>
					
						<linearGradient id="SVGID_00000153669767043825065670000015982339394159257783_" gradientUnits="userSpaceOnUse" x1="4547.6143" y1="1898.7444" x2="4541.375" y2="4032.9001" gradientTransform="matrix(1 0 0 1 -2484.0642 0)">
						<stop  offset="0" style="stop-color:#53D8FF"/>
						<stop  offset="1" style="stop-color:#3840F7"/>
					</linearGradient>
					<path style="fill:url(#SVGID_00000153669767043825065670000015982339394159257783_);" d="M2221.341,2817.26
						c0,17.234-14.1,31.335-31.335,31.335h-258.2c-17.234,0-31.335-14.1-31.335-31.335v-28.333c0-17.234,14.1-31.335,31.335-31.335
						h258.2c17.234,0,31.335,14.1,31.335,31.335V2817.26z"/>
				</g>
				<g>
					
						<linearGradient id="SVGID_00000170959057496683745570000017882322838452018600_" gradientUnits="userSpaceOnUse" x1="2166.2773" y1="2610.3047" x2="1628.0844" y2="3045.5386">
						<stop  offset="0" style="stop-color:#F9B776"/>
						<stop  offset="1" style="stop-color:#F47960"/>
					</linearGradient>
					<path style="fill:url(#SVGID_00000170959057496683745570000017882322838452018600_);" d="M1840.756,2618.093
						c0,0-43.298,6.712-91.978,39.254c-7.661,5.121-11.864,14.049-10.709,23.192c5.829,46.172,29.796,195.619,108.827,341.584
						c4.168,7.696,5.365,16.656,3.527,25.214l-13.731,63.898l-25.463,23.875h65.587l43.669-118.176l-18.673-5.905
						c-14.478-4.578-24.411-17.895-24.674-33.077l-2.191-126.77c1.869-56.479-34.631-95.448-34.631-95.448l104.743-5.095
						L1840.756,2618.093z"/>
					
						<linearGradient id="SVGID_00000026123669491975346450000011378993837761389710_" gradientUnits="userSpaceOnUse" x1="4348.709" y1="3011.5999" x2="4318.2358" y2="3478.8484" gradientTransform="matrix(1 0 0 1 -2484.0642 0)">
						<stop  offset="0" style="stop-color:#CB236D"/>
						<stop  offset="1" style="stop-color:#4C246D"/>
					</linearGradient>
					<path style="fill:url(#SVGID_00000026123669491975346450000011378993837761389710_);" d="M1785.619,3146.638
						c-5.973,7.817,64.287,18.133,99.784,1.034c0,0,49.207-85.613,49.207-129.693c0,0-3.906-8.987-32.799-6.95
						c0,0-16.522,101.37-33.968,112.725c-17.446,11.355-48.81,1.149-48.81,1.149S1794.432,3135.104,1785.619,3146.638z"/>
					
						<linearGradient id="SVGID_00000042007969014219687240000013163432029872834695_" gradientUnits="userSpaceOnUse" x1="1713.2114" y1="2728.5491" x2="1713.2114" y2="1993.7991">
						<stop  offset="0" style="stop-color:#F9B776"/>
						<stop  offset="1" style="stop-color:#F47960"/>
					</linearGradient>
					<path style="fill:url(#SVGID_00000042007969014219687240000013163432029872834695_);" d="M1931.806,2757.593
						c-0.557-0.964-112.773-13.493-112.773-13.493s3.672,34.119-7.805,81.088s-176.234,250.461-176.234,250.461l17.275,54.763
						c-53.413,18.606-105.953,21.581-157.653,9.484l107.061-64.247c0,0,100.197-341.452,161.57-402.366l112.483-38.915
						L1931.806,2757.593z"/>
					
						<linearGradient id="SVGID_00000045599060291090029200000014381859769098510987_" gradientUnits="userSpaceOnUse" x1="4248.4419" y1="2662.6877" x2="4738.2197" y2="2662.6877" gradientTransform="matrix(1 0 0 1 -2484.0642 0)">
						<stop  offset="0" style="stop-color:#2B3582"/>
						<stop  offset="1" style="stop-color:#150E42"/>
					</linearGradient>
					<path style="fill:url(#SVGID_00000045599060291090029200000014381859769098510987_);" d="M2183.466,2558.914
						c0,0,64.653,96.162,69.958,140.027c5.305,43.865-17.71,61.689-85.547,64.628c-67.837,2.939-248.934,2.892-248.934,2.892
						l-154.564-132.094c0,0,112.64-40.193,141.925-51.558C1935.589,2571.444,2183.466,2558.914,2183.466,2558.914z"/>
					
						<linearGradient id="SVGID_00000109746592531471438000000007113691163311889318_" gradientUnits="userSpaceOnUse" x1="4054.6501" y1="2992.4224" x2="4024.1772" y2="3459.6709" gradientTransform="matrix(1 0 0 1 -2484.0642 0)">
						<stop  offset="0" style="stop-color:#CB236D"/>
						<stop  offset="1" style="stop-color:#4C246D"/>
					</linearGradient>
					<path style="fill:url(#SVGID_00000109746592531471438000000007113691163311889318_);" d="M1645.742,3111.969
						c0,0,18.599,18.014,6.035,38.057c0,0-147.333,26.115-187.335,14.266c0,0,8.306-18.958,53.35-40.537l-3.323,2.551
						c-4.206,3.229-1.74,9.955,3.554,9.653C1547.705,3134.267,1609.131,3128.829,1645.742,3111.969z"/>
				</g>
				<g>
					
						<linearGradient id="SVGID_00000085228748803486855370000012893892206953951873_" gradientUnits="userSpaceOnUse" x1="4875.5322" y1="74.6403" x2="4803.4165" y2="453.5023" gradientTransform="matrix(0.8798 0.4754 -0.4754 0.8798 -2038.1189 -473.4668)">
						<stop  offset="0" style="stop-color:#2B3582"/>
						<stop  offset="1" style="stop-color:#150E42"/>
					</linearGradient>
					<path style="fill:url(#SVGID_00000085228748803486855370000012893892206953951873_);" d="M1985.046,1903.983
						c126.953,43.055,130.456,167.464,115.69,185.228c-1.959,2.357-0.676,5.939,2.306,6.644
						c15.29,3.619,47.228,15.023,53.132,47.806c5.212,28.944-17.16,41.512-32.655,46.674c-3.741,1.247-3.964,6.433-0.287,7.859
						c26.217,10.163,79.946,38.234,61.679,92.905c-17.034,50.982-56.558,46.6-77.79,39.913c-3.592-1.132-6.664,2.734-4.825,6.021
						c6.306,11.27,10.626,29.852-7.276,52.246c-28.059,35.098-102.609-9.296-111.249-14.619c-0.547-0.337-0.993-0.789-1.333-1.334
						l-84.52-135.681c-0.659-1.058-0.811-2.354-0.414-3.535l52.296-155.762c0.423-1.26,1.42-2.243,2.686-2.648l-18.915-155.423
						C1906.958,1900.403,1983.55,1903.475,1985.046,1903.983z"/>
					
						<linearGradient id="SVGID_00000176005060588430086630000017923419872278251452_" gradientUnits="userSpaceOnUse" x1="4464.1382" y1="2230.9404" x2="4696.4438" y2="2736.5466" gradientTransform="matrix(1 0 0 1 -2484.0642 0)">
						<stop  offset="0" style="stop-color:#A737D5"/>
						<stop  offset="1" style="stop-color:#EF497A"/>
					</linearGradient>
					<path style="fill:url(#SVGID_00000176005060588430086630000017923419872278251452_);" d="M2008.62,2519.979
						c0,0-75.288-71.689-112.348-119.172c-20.033-25.667-26.324-59.457-17.059-90.67c16.919-57.003,46.989-116.044,49.731-125.233
						c4.203-14.085,88.62-13.499,88.62-13.499s166.117,107.811,231.385,290.436l-73.3,22.82c0,0-43.374-72.767-86.229-119.03
						c0,0,74.155,97.961,76.766,138.064L2008.62,2519.979z"/>
					
						<linearGradient id="SVGID_00000150104236282663362650000004967180360754934147_" gradientUnits="userSpaceOnUse" x1="4474.4072" y1="2292.4158" x2="4444.8955" y2="2103.0513" gradientTransform="matrix(1 0 0 1 -2484.0642 0)">
						<stop  offset="0" style="stop-color:#F9B776"/>
						<stop  offset="1" style="stop-color:#F47960"/>
					</linearGradient>
					<path style="fill:url(#SVGID_00000150104236282663362650000004967180360754934147_);" d="M1918.227,2098.783
						c0.881,2.928,23.424,83.376,25.147,84.893c1.724,1.516,48.32,4.022,70.253-10.968l-54.405-106.417L1918.227,2098.783z"/>
					<g>
						
							<linearGradient id="SVGID_00000027586512402628416170000017299379765716765373_" gradientUnits="userSpaceOnUse" x1="3078.6226" y1="6356.084" x2="3271.79" y2="6487.292" gradientTransform="matrix(0.9768 -0.214 0.214 0.9768 -2531.4741 -3549.0798)">
							<stop  offset="0" style="stop-color:#F9B776"/>
							<stop  offset="1" style="stop-color:#F47960"/>
						</linearGradient>
						<path style="fill:url(#SVGID_00000027586512402628416170000017299379765716765373_);" d="M1888.091,1940.854
							c0,0-35.26,24.922-49.375,86.857c-14.115,61.936,11.295,83.536,36.856,81.665c25.561-1.872,62.503-10.535,93.756-55.396
							C2000.581,2009.12,1934.339,1910.337,1888.091,1940.854z"/>
						
							<linearGradient id="SVGID_00000156575575502208759440000014418829863433960602_" gradientUnits="userSpaceOnUse" x1="3207.4783" y1="6199.1445" x2="3135.3584" y2="6578.0288" gradientTransform="matrix(0.9768 -0.214 0.214 0.9768 -2531.4741 -3549.0798)">
							<stop  offset="0" style="stop-color:#2B3582"/>
							<stop  offset="1" style="stop-color:#150E42"/>
						</linearGradient>
						<path style="fill:url(#SVGID_00000156575575502208759440000014418829863433960602_);" d="M1936.408,2029.78
							c0,0,11.313-88.569-61.728-73.58l-14.512,15.733c0,0-36.702-39.688,2.392-71.039c39.095-31.352,94.361-24.642,125.974,30.357
							c31.613,54.999,43.468,93.855,18.611,128.93c-24.856,35.075-44.678,5.824-44.678,5.824s11.115-30.147,1.131-42.785
							c-9.984-12.638-22.12,7.914-22.12,7.914L1936.408,2029.78z"/>
						
							<linearGradient id="SVGID_00000021833748792741027600000004506587263465385127_" gradientUnits="userSpaceOnUse" x1="3070.9404" y1="6346.6699" x2="3264.106" y2="6477.8765" gradientTransform="matrix(0.9768 -0.214 0.214 0.9768 -2531.4741 -3549.0798)">
							<stop  offset="0" style="stop-color:#F9B776"/>
							<stop  offset="1" style="stop-color:#F47960"/>
						</linearGradient>
						<path style="fill:url(#SVGID_00000021833748792741027600000004506587263465385127_);" d="M1929.399,2048.719
							c0,0,5.549-45.562,29.014-33.044c23.465,12.518-7.504,42.608-19.958,52.885L1929.399,2048.719z"/>
					</g>
					
						<linearGradient id="SVGID_00000022532192758401345400000000597226809252114583_" gradientUnits="userSpaceOnUse" x1="4595.2769" y1="2507.4753" x2="5005.9634" y2="2507.4753" gradientTransform="matrix(1 0 0 1 -2484.0642 0)">
						<stop  offset="0" style="stop-color:#F9B776"/>
						<stop  offset="1" style="stop-color:#F47960"/>
					</linearGradient>
					<path style="fill:url(#SVGID_00000022532192758401345400000000597226809252114583_);" d="M1855.241,2525.302l55.316-53.316
						l76.522,32.326c0,0,76.169,11.801,119.763,0c43.594-11.802,43.594-11.802,43.594-11.802l98.514-30.669l15.472,43.727
						c3.928,11.102-0.02,23.427-9.619,30.248c-8.522,6.056-18.513,12.712-24.881,15.498c-12.973,5.676-319.809-3.927-319.809-3.927
						L1855.241,2525.302z"/>
				</g>
				<g>
					
						<linearGradient id="SVGID_00000024684980943200272420000000010587666596494002_" gradientUnits="userSpaceOnUse" x1="4514.4468" y1="2743.2446" x2="4255.916" y2="2814.1011" gradientTransform="matrix(0.9988 -0.0494 0.0494 0.9988 -2525.5332 -55.0328)">
						<stop  offset="0" style="stop-color:#2B3582"/>
						<stop  offset="1" style="stop-color:#150E42"/>
					</linearGradient>
					<path style="fill:url(#SVGID_00000024684980943200272420000000010587666596494002_);" d="M2064.573,2547.163
						c-0.245,0.012-0.491,0.019-0.738,0.017l-320.875-0.35c-7.932-0.006-14.355-6.444-14.348-14.376
						c0.008-7.935,6.468-14.49,14.379-14.347l320.875,0.35c7.932,0.007,14.355,6.444,14.348,14.376
						C2078.205,2540.517,2072.162,2546.787,2064.573,2547.163z"/>
					
						<linearGradient id="SVGID_00000139293033628937983310000001618165698767616136_" gradientUnits="userSpaceOnUse" x1="4253.168" y1="2294.8933" x2="4069.7288" y2="2488.7771" gradientTransform="matrix(1 0 0 1 -2484.0642 0)">
						<stop  offset="0" style="stop-color:#2B3582"/>
						<stop  offset="1" style="stop-color:#150E42"/>
					</linearGradient>
					<path style="fill:url(#SVGID_00000139293033628937983310000001618165698767616136_);" d="M1454.507,2255.827h267.227
						c19.713,0,37.656,11.377,46.065,29.207l123.538,261.957h-332.092c-12.704,0-24.118-7.762-28.787-19.577l-95.799-242.402
						C1429.125,2271.006,1439.447,2255.827,1454.507,2255.827z"/>
					
						<linearGradient id="SVGID_00000126308475987885602820000014763993056653943197_" gradientUnits="userSpaceOnUse" x1="4142.2705" y1="2343.1692" x2="4059.0376" y2="2468.5083" gradientTransform="matrix(1 0 0 1 -2484.0642 0)">
						<stop  offset="0" style="stop-color:#53D8FF"/>
						<stop  offset="1" style="stop-color:#3840F7"/>
					</linearGradient>
					<path style="fill:url(#SVGID_00000126308475987885602820000014763993056653943197_);" d="M1642.771,2390.141
						c5.791,17.991,1.513,35.464-9.555,39.027c-11.068,3.562-24.735-8.135-30.526-26.126c-5.791-17.991-1.513-35.464,9.555-39.027
						C1623.314,2360.453,1636.98,2372.149,1642.771,2390.141z"/>
				</g>
			</g>
			<g>
				
					<linearGradient id="SVGID_00000060014422631185403650000012069865524722600594_" gradientUnits="userSpaceOnUse" x1="-5634.4165" y1="1665.5288" x2="-5501.7627" y2="3596.3672" gradientTransform="matrix(-1 0 0 1 -2838.5674 0)">
					<stop  offset="0" style="stop-color:#9CFFFB"/>
					<stop  offset="1" style="stop-color:#9BFFFA"/>
				</linearGradient>
				<path style="fill:url(#SVGID_00000060014422631185403650000012069865524722600594_);" d="M2832.101,3175.157
					c1.49,0,3.003-0.325,4.459-1.007c5.731-2.691,8.379-9.944,5.913-16.199l-236.927-601.162c-2.464-6.253-9.105-9.141-14.842-6.454
					c-5.731,2.691-8.379,9.943-5.913,16.199l236.927,601.161C2823.556,3172.362,2827.723,3175.157,2832.101,3175.157z"/>
				
					<linearGradient id="SVGID_00000025407710585241957670000004141882567457681084_" gradientUnits="userSpaceOnUse" x1="-5604.5869" y1="1663.4801" x2="-5471.9331" y2="3594.3191" gradientTransform="matrix(-1 0 0 1 -2838.5674 0)">
					<stop  offset="0" style="stop-color:#9CFFFB"/>
					<stop  offset="1" style="stop-color:#9BFFFA"/>
				</linearGradient>
				<path style="fill:url(#SVGID_00000025407710585241957670000004141882567457681084_);" d="M2565.192,3175.157
					c4.378,0,8.544-2.793,10.383-7.462l236.927-601.161c2.466-6.256-0.182-13.508-5.913-16.199
					c-5.728-2.691-12.375,0.197-14.842,6.454l-236.927,601.162c-2.466,6.255,0.182,13.508,5.914,16.199
					C2562.187,3174.833,2563.703,3175.157,2565.192,3175.157z"/>
				
					<linearGradient id="SVGID_00000104684385910549075660000006013051629963921314_" gradientUnits="userSpaceOnUse" x1="-4410.9331" y1="1581.4752" x2="-4278.2788" y2="3512.3135" gradientTransform="matrix(-1 0 0 1 -2838.5674 0)">
					<stop  offset="0" style="stop-color:#9CFFFB"/>
					<stop  offset="1" style="stop-color:#9BFFFA"/>
				</linearGradient>
				<path style="fill:url(#SVGID_00000104684385910549075660000006013051629963921314_);" d="M1602.73,3176.787
					c1.489,0,3.003-0.325,4.459-1.007c5.731-2.691,8.379-9.944,5.913-16.199l-236.927-601.162
					c-2.466-6.253-9.104-9.141-14.842-6.454c-5.73,2.691-8.379,9.944-5.913,16.199l236.927,601.161
					C1594.186,3173.991,1598.353,3176.787,1602.73,3176.787z"/>
				
					<linearGradient id="SVGID_00000029737125326594846630000000600659647688161922_" gradientUnits="userSpaceOnUse" x1="-4381.105" y1="1579.4263" x2="-4248.4512" y2="3510.2654" gradientTransform="matrix(-1 0 0 1 -2838.5674 0)">
					<stop  offset="0" style="stop-color:#9CFFFB"/>
					<stop  offset="1" style="stop-color:#9BFFFA"/>
				</linearGradient>
				<path style="fill:url(#SVGID_00000029737125326594846630000000600659647688161922_);" d="M1335.823,3176.787
					c4.378,0,8.545-2.793,10.383-7.461l236.927-601.161c2.466-6.256-0.182-13.508-5.913-16.199
					c-5.728-2.691-12.374,0.197-14.842,6.454l-236.927,601.162c-2.466,6.255,0.181,13.508,5.913,16.199
					C1332.819,3176.462,1334.334,3176.787,1335.823,3176.787z"/>
			</g>
			
				<linearGradient id="SVGID_00000134212770011523145500000013518689278247741597_" gradientUnits="userSpaceOnUse" x1="2086.8889" y1="1975.1765" x2="2165.4976" y2="3183.7905">
				<stop  offset="0" style="stop-color:#9CFFFB"/>
				<stop  offset="1" style="stop-color:#9BFFFA"/>
			</linearGradient>
			<path style="fill:url(#SVGID_00000134212770011523145500000013518689278247741597_);" d="M1281.97,2538.2
				c-0.924-3.953,0.334-8.041,3.431-11.147c3.097-3.106,7.709-4.905,12.575-4.905h1648.4c6.399,0,12.358,2.699,15.805,7.16
				c3.448,4.461,3.91,10.068,1.227,14.875l-17.863,31.989c-4.09,7.325-12.953,12.015-22.707,12.015H1309.287
				c-9.072,0-16.87-5.323-18.593-12.693L1281.97,2538.2z"/>
		</g>
		<g>
			
				<linearGradient id="SVGID_00000014624596878207970920000018083769980076650413_" gradientUnits="userSpaceOnUse" x1="789.1147" y1="764.4829" x2="569.6524" y2="1973.1611">
				<stop  offset="0" style="stop-color:#FDF53F"/>
				<stop  offset="0.6645" style="stop-color:#E57A58"/>
				<stop  offset="1" style="stop-color:#D93C65"/>
			</linearGradient>
			<circle style="fill:url(#SVGID_00000014624596878207970920000018083769980076650413_);" cx="734.506" cy="1065.24" r="145.479"/>
			<g>
				<path style="fill:#FFFFFF;" d="M734.506,1156.472c-50.306,0-91.232-40.927-91.232-91.232c0-50.305,40.927-91.232,91.232-91.232
					c50.305,0,91.232,40.927,91.232,91.232C825.738,1115.545,784.811,1156.472,734.506,1156.472z M734.506,989.296
					c-41.876,0-75.944,34.068-75.944,75.944c0,41.875,34.068,75.944,75.944,75.944c41.875,0,75.943-34.068,75.943-75.944
					C810.449,1023.364,776.381,989.296,734.506,989.296z"/>
				<path style="fill-rule:evenodd;clip-rule:evenodd;fill:#FFFFFF;" d="M705.926,1100.374v-65.589
					c0-7.008,7.629-11.352,13.656-7.776l55.268,32.795c5.904,3.503,5.904,12.049,0,15.552l-55.268,32.795
					C713.555,1111.726,705.926,1107.382,705.926,1100.374z"/>
			</g>
		</g>
		<g>
			
				<linearGradient id="SVGID_00000181808091274245398010000013104240705152735396_" gradientUnits="userSpaceOnUse" x1="1200.2738" y1="547.0397" x2="1005.8406" y2="1617.8715">
				<stop  offset="0" style="stop-color:#FDF53F"/>
				<stop  offset="0.6645" style="stop-color:#E57A58"/>
				<stop  offset="1" style="stop-color:#D93C65"/>
			</linearGradient>
			<circle style="fill:url(#SVGID_00000181808091274245398010000013104240705152735396_);" cx="1148.808" cy="830.485" r="138.92"/>
			<path style="fill:#FFFFFF;" d="M1146.625,740.654c-35.074,0-63.507,28.433-63.507,63.507c0,22.729,26.669,75.603,45.443,110.008
				c7.804,14.301,28.324,14.301,36.128,0c18.774-34.405,45.443-87.279,45.443-110.008
				C1210.132,769.087,1181.699,740.654,1146.625,740.654z M1146.625,838.259c-18.832,0-34.098-15.266-34.098-34.098
				c0-18.832,15.266-34.098,34.098-34.098s34.098,15.266,34.098,34.098C1180.723,822.993,1165.457,838.259,1146.625,838.259z"/>
		</g>
		<g>
			
				<linearGradient id="SVGID_00000127722241153361189370000001241297277870991524_" gradientUnits="userSpaceOnUse" x1="1070.1313" y1="1142.1912" x2="1015.5392" y2="1705.5859">
				<stop  offset="0" style="stop-color:#FDF53F"/>
				<stop  offset="0.6645" style="stop-color:#E57A58"/>
				<stop  offset="1" style="stop-color:#D93C65"/>
			</linearGradient>
			<circle style="fill:url(#SVGID_00000127722241153361189370000001241297277870991524_);" cx="1043.958" cy="1412.3" r="150.928"/>
			
				<linearGradient id="SVGID_00000163040864914331830660000005677268085184805023_" gradientUnits="userSpaceOnUse" x1="1124.0762" y1="1241.0331" x2="822.7256" y2="1885.2256">
				<stop  offset="0" style="stop-color:#FDF53F"/>
				<stop  offset="0.6645" style="stop-color:#E57A58"/>
				<stop  offset="1" style="stop-color:#D93C65"/>
			</linearGradient>
			<circle style="fill:url(#SVGID_00000163040864914331830660000005677268085184805023_);" cx="1043.958" cy="1412.3" r="145.909"/>
			<path style="opacity:0.56;fill:#FFFFFF;" d="M923.128,1357.682c-0.739,0.007-1.491-0.153-2.199-0.504
				c-2.418-1.193-3.409-4.119-2.217-6.532c23.461-47.57,70.958-77.42,123.956-77.909c8.458-0.078,16.934,0.606,25.194,2.03
				c2.654,0.457,4.435,2.981,3.979,5.635c-0.457,2.658-2.968,4.459-5.639,3.978c-7.682-1.32-15.57-1.958-23.444-1.885
				c-49.293,0.455-93.471,28.221-115.295,72.464C926.621,1356.668,924.913,1357.666,923.128,1357.682z"/>
			
				<ellipse transform="matrix(0.7071 -0.7071 0.7071 0.7071 -694.166 1155.0341)" style="opacity:0.33;fill:#FFFFFF;" cx="1047.167" cy="1415.449" rx="123.495" ry="123.494"/>
			<g>
				<path style="fill:#FFFFFF;" d="M1035.896,1507.365l-0.124-13.435c-14.011-0.431-27.894-3.609-37.773-7.826
					c-3.527-1.505-5.355-5.432-4.38-9.141l3.298-12.546c1.21-4.602,6.18-7.023,10.586-5.224c9.798,4.002,21.879,7.127,34.873,7.007
					c13.49-0.125,23.508-4.79,23.421-14.166c-0.078-8.459-7.898-13.417-26.693-18.273c-26.818-7.069-46.132-18.553-46.35-42.103
					c-0.196-21.264,15.202-37.641,42.141-42.234l-0.124-13.436c-0.04-4.323,3.432-7.861,7.756-7.901l7.894-0.073
					c4.323-0.04,7.86,3.433,7.9,7.756l0.111,12.063c12.964,0.399,22.419,2.528,29.93,5.089c3.848,1.312,5.982,5.425,4.954,9.359
					l-3.032,11.603c-1.17,4.474-5.917,6.963-10.257,5.367c-6.917-2.543-16.688-5.167-29.355-5.05
					c-16.006,0.148-20.516,6.821-20.462,12.766c0.068,7.316,9.717,12.257,30.583,18.468c29.806,8.642,42.266,20.875,42.471,43.053
					c0.188,20.349-14.733,38.78-43.958,43.623l0.139,15.036c0.04,4.323-3.432,7.86-7.755,7.9l-7.894,0.073
					C1039.474,1515.16,1035.936,1511.688,1035.896,1507.365z"/>
			</g>
		</g>
	</g>
</g>
</svg>
