<svg width="596" height="600" viewBox="0 0 596 600" fill="none" xmlns="http://www.w3.org/2000/svg">
<path d="M73.728 0H72.4189V179.867H73.728V0Z" fill="#2A2A2A"/>
<path d="M134.678 240.08L129.729 251.122H16.403L11.4678 240.08L59.7071 206.224H86.4383L134.678 240.08Z" fill="white"/>
<path d="M89.7892 173.603L86.4379 206.224H59.7067L56.3555 173.603H89.7892Z" fill="#DBDBDB"/>
<path d="M134.677 240.08L129.716 251.122H16.4024L11.4541 240.08H134.677Z" fill="#DBDBDB"/>
<path d="M206.009 0H204.7V144.247H206.009V0Z" fill="#2A2A2A"/>
<path d="M266.96 204.446L262.012 215.501H148.686L143.75 204.446L191.99 170.591H218.721L266.96 204.446Z" fill="white"/>
<path d="M222.072 137.983L218.721 170.591H191.989L188.638 137.983H222.072Z" fill="#DBDBDB"/>
<path d="M266.96 204.459L261.998 215.501H148.685L143.737 204.459H266.96Z" fill="#DBDBDB"/>
<path d="M10.7598 580.969L82.51 580.65L154.26 580.531L297.761 580.318L441.261 580.531L513.011 580.65L584.762 580.969L513.011 581.301L441.261 581.42L297.761 581.632L154.26 581.42L82.51 581.301L10.7598 580.969Z" fill="#253136"/>
<path d="M573.034 119.456H355.99V341.858H573.034V119.456Z" fill="white"/>
<path d="M455.78 106.038C463.019 97.4253 475.416 95.3549 487.407 97.8101C499.398 100.265 513.759 106.397 515.068 126.729C516.141 143.238 511.14 159.336 511.14 177.757C511.14 196.178 531.706 241.048 498.796 262.946C469.224 282.614 409.308 264.552 407.462 224.061C406.009 191.971 443.553 162.296 447.507 149.595C451.46 136.894 447.847 115.461 455.78 106.038Z" fill="#253136"/>
<path d="M450.373 124.154C450.151 133.338 448.842 142.628 445.137 151.294C444.176 153.489 442.92 155.539 441.406 157.386C439.953 159.244 438.408 160.995 436.864 162.694C433.748 166.131 430.672 169.542 427.7 173.086C421.798 180.028 416.921 187.802 413.222 196.165C409.675 204.566 407.725 213.572 407.475 222.707C407.106 218.097 407.242 213.459 407.881 208.879C408.589 204.275 409.76 199.757 411.376 195.395C414.786 186.656 419.618 178.558 425.671 171.44C428.643 167.843 431.798 164.406 434.939 161.009C438.081 157.611 441.262 154.373 443.213 150.391C445.213 146.321 446.738 142.027 447.755 137.598C448.904 133.176 449.778 128.686 450.373 124.154Z" fill="#253136"/>
<path d="M514.244 140.597C514.021 149.967 513.432 159.323 513.681 168.626C513.788 173.26 514.173 177.882 514.833 182.469C515.514 186.981 516.849 191.493 517.961 196.058C519.074 200.624 520.069 205.256 520.802 209.927C521.511 214.62 521.809 219.368 521.692 224.114C521.479 228.884 520.598 233.598 519.074 238.116C517.317 242.556 514.695 246.591 511.364 249.98C514.282 246.343 516.502 242.184 517.909 237.717C519.13 233.276 519.738 228.685 519.716 224.074C519.345 214.794 517.913 205.588 515.448 196.642C514.401 192.09 513.066 187.578 512.424 182.787C511.823 178.093 511.587 173.358 511.717 168.626C511.994 159.24 512.838 149.879 514.244 140.597Z" fill="#253136"/>
<path d="M466.632 219.389C436.523 252.993 411.952 269.131 387.734 269.131C364.708 269.131 315.513 212.449 311.9 204.977C308.784 198.527 349.169 163.238 355.374 167.631C365.847 174.983 399.437 217.545 402.998 217.744C406.559 217.943 419.676 209.157 451.263 194.161C470.454 185.07 487.577 196.098 466.632 219.389Z" fill="#EB9481"/>
<path d="M316.586 210.564C312.161 205.707 293.586 181.46 289.907 173.55C286.229 165.64 277.314 142.097 283.008 138.633C288.703 135.169 291.845 141.845 291.845 141.845C291.845 141.845 289.632 131.307 295.68 128.348C301.728 125.388 306.284 135.939 306.284 135.939C306.284 135.939 304.791 124.95 311.023 122.429C317.254 119.907 320.108 131.32 320.108 131.32C320.108 131.32 318.275 121.327 324.27 121.447C331.483 121.593 332.806 140.398 337.505 148.825C338.565 150.737 361.841 185.985 361.841 185.985L316.586 210.564Z" fill="#EB9481"/>
<path d="M319.859 130.352C320.867 144.167 323.668 150.046 331.64 161.022C331.797 161.234 331.523 161.513 331.339 161.314C322.529 151.281 317.974 144.433 319.165 130.365C319.257 129.675 319.806 129.688 319.859 130.352Z" fill="#253136"/>
<path d="M306.243 134.851C308.521 149.117 311.48 155.514 319.059 167.631C319.164 167.803 318.889 168.003 318.771 167.843C310.38 156.576 305.982 149.635 305.55 135.076C305.523 134.413 306.139 134.187 306.243 134.851Z" fill="#253136"/>
<path d="M292.263 142.455C295.457 156.111 298.429 163.265 307.252 174.068C307.461 174.333 307.108 174.665 306.885 174.426C296.832 164.287 293.061 155.382 291.87 142.575C291.792 141.725 292.067 141.593 292.263 142.455Z" fill="#253136"/>
<path d="M372.221 189.356C372.221 189.356 371.92 171.984 370.126 164.38C368.333 156.775 351.433 130.949 345.66 134.346C338.29 138.726 345.176 155.581 349.587 163.411C349.587 163.411 332.569 173.55 334.886 186.742C337.203 199.934 372.221 189.356 372.221 189.356Z" fill="#EB9481"/>
<path d="M344.025 136.218C340.098 145.136 346.643 155.023 350.374 162.92C350.434 163.033 350.466 163.16 350.469 163.289C350.471 163.418 350.442 163.545 350.386 163.661C350.33 163.776 350.247 163.876 350.145 163.953C350.042 164.03 349.924 164.08 349.798 164.101C342.912 168.839 334.574 177.532 334.469 186.423C334.469 186.476 334.448 186.527 334.411 186.564C334.375 186.601 334.325 186.622 334.273 186.622C334.221 186.622 334.171 186.601 334.134 186.564C334.097 186.527 334.076 186.476 334.076 186.423C332.911 176.868 340.412 167.631 348.267 162.946C344.339 154.891 338.226 144.698 343.947 136.138L344.025 136.218Z" fill="#253136"/>
<path d="M414.713 207.976L438.905 253.736C438.905 253.736 471.71 221.447 476.947 207.976C482.183 194.506 476.541 184.725 453.2 191.931C439.866 195.937 426.97 201.314 414.713 207.976Z" fill="#6E1255"/>
<path d="M444.495 244.194C443.304 241.712 442.257 239.151 441.013 236.682C439.77 234.214 438.526 231.772 437.23 229.356C434.612 224.472 431.994 219.575 429.271 214.758C427.726 212.104 426.103 209.37 424.414 206.795C424.349 206.676 424.126 206.795 424.192 206.888C428.629 216.961 434.01 226.609 439.377 236.191C440.935 238.965 442.702 241.606 444.325 244.34C444.377 244.406 444.561 244.287 444.495 244.194Z" fill="#253136"/>
<path d="M476.947 207.976C471.711 221.447 438.906 253.736 438.906 253.736L422.608 222.959L476.371 192.82C479.461 196.085 479.422 201.619 476.947 207.976Z" fill="#253136"/>
<path d="M420.226 285.017C420.226 285.017 406.926 317.293 411.625 341.845H558.267C553.502 275.103 520.684 217.744 501.297 199.177C485.666 184.207 469.211 185.547 457.757 193.205C455.06 195.023 425.305 236.709 422.085 243.305C409.308 269.33 420.226 285.017 420.226 285.017Z" fill="#6E1255"/>
<path d="M458.778 191.241C458.778 191.241 449.615 217.956 454.929 219.35C468.151 222.8 485.889 200.916 486.949 198.686C487.211 198.115 488.389 183.159 489.266 171.52C489.829 164.034 490.261 157.916 490.261 157.916L457.639 169.263L458.686 189.768L458.778 191.241Z" fill="#EB9481"/>
<path d="M457.586 169.263L458.633 189.768C465.27 188.825 479.866 185.176 489.213 171.52C489.776 164.034 490.208 157.916 490.208 157.916L486.124 159.243L457.586 169.263Z" fill="#253136"/>
<path d="M433.29 140.557C432.897 150.976 433.919 159.403 436.419 165.003C438.561 169.787 441.97 173.875 446.266 176.813C450.562 179.751 455.577 181.424 460.754 181.646C464.682 181.792 475.992 180.743 484.174 174.426C490.536 169.516 494.371 160.664 496.544 145.096C501.519 109.502 485.457 97.5316 469.63 96.0983C453.803 94.665 434.599 104.645 433.29 140.557Z" fill="#EB9481"/>
<path d="M442.362 132.621C443.187 132.502 443.946 132.263 444.745 132.077C445.613 131.998 446.434 131.64 447.088 131.055C447.252 130.828 447.34 130.554 447.34 130.272C447.34 129.991 447.252 129.716 447.088 129.489C446.681 129.105 446.18 128.838 445.637 128.714C445.094 128.59 444.529 128.615 443.999 128.786C442.87 128.968 441.848 129.568 441.132 130.471C440.963 130.68 440.861 130.936 440.839 131.206C440.818 131.475 440.878 131.745 441.012 131.979C441.146 132.212 441.347 132.399 441.588 132.514C441.829 132.629 442.099 132.666 442.362 132.621Z" fill="#253136"/>
<path d="M465.493 133.51C464.689 133.367 463.894 133.181 463.11 132.953C462.242 132.879 461.422 132.515 460.78 131.918C460.616 131.69 460.528 131.416 460.528 131.135C460.528 130.853 460.616 130.579 460.78 130.352C461.191 129.969 461.695 129.704 462.24 129.585C462.786 129.466 463.353 129.497 463.882 129.675C465.02 129.859 466.048 130.47 466.762 131.387C466.926 131.599 467.023 131.857 467.039 132.126C467.055 132.395 466.989 132.663 466.852 132.893C466.714 133.124 466.51 133.307 466.267 133.417C466.024 133.527 465.754 133.56 465.493 133.51Z" fill="#253136"/>
<path d="M459.705 142.482C459.705 142.389 459.889 142.601 459.889 142.707C459.692 145.136 459.889 148.016 462.022 148.892C462.022 148.892 462.022 149.038 462.022 149.024C459.352 148.52 459.142 144.751 459.705 142.482Z" fill="#253136"/>
<path d="M461.985 140.026C465.912 139.92 465.808 147.817 462.195 147.923C458.581 148.029 458.778 140.119 461.985 140.026Z" fill="#253136"/>
<path d="M463.517 140.464C464.184 140.916 464.826 141.712 465.664 141.792C466.501 141.871 467.339 141.075 467.967 140.279C468.033 140.199 468.098 140.279 468.098 140.372C468.098 141.884 467.522 143.437 465.912 143.65C464.302 143.862 463.425 142.482 463.058 140.995C462.993 140.677 463.242 140.279 463.517 140.464Z" fill="#253136"/>
<path d="M446.813 141.447C446.813 141.354 446.63 141.566 446.63 141.659C446.63 144.114 446.381 146.967 444.195 147.737C444.13 147.737 444.13 147.883 444.195 147.87C446.879 147.498 447.271 143.756 446.813 141.447Z" fill="#253136"/>
<path d="M444.667 138.885C440.739 138.58 440.464 146.476 444.064 146.755C447.664 147.034 447.913 139.151 444.667 138.885Z" fill="#253136"/>
<path d="M443.068 139.35C442.44 139.748 441.759 140.478 441.066 140.504C440.372 140.531 439.612 139.642 439.102 138.806C439.102 138.713 438.984 138.806 438.971 138.885C438.879 140.398 439.298 141.977 440.725 142.336C442.152 142.694 443.029 141.394 443.435 139.907C443.461 139.615 443.265 139.19 443.068 139.35Z" fill="#253136"/>
<path d="M459.472 161.486C458.909 162.084 458.359 162.893 457.495 162.999C456.597 163.006 455.707 162.83 454.877 162.482C454.861 162.468 454.841 162.46 454.82 162.462C454.799 162.463 454.779 162.473 454.766 162.488C454.752 162.504 454.745 162.525 454.746 162.546C454.747 162.567 454.756 162.587 454.772 162.601C455.135 163.07 455.616 163.43 456.165 163.645C456.713 163.86 457.308 163.921 457.888 163.822C458.371 163.669 458.801 163.377 459.124 162.981C459.446 162.585 459.649 162.103 459.707 161.593C459.715 161.562 459.711 161.53 459.698 161.502C459.684 161.474 459.662 161.452 459.633 161.439C459.605 161.426 459.574 161.424 459.544 161.433C459.514 161.442 459.489 161.46 459.472 161.486Z" fill="#253136"/>
<path d="M449.614 152.422C449.614 152.422 449.038 156.072 449.012 157.797C449.012 157.956 449.418 158.036 449.994 158.089C449.994 158.089 449.994 158.089 450.059 158.089C451.504 158.379 453 158.262 454.384 157.752C455.769 157.242 456.989 156.358 457.914 155.196C458.032 155.036 457.822 154.851 457.665 154.957C455.465 156.409 452.863 157.107 450.243 156.948C450.138 156.456 451.434 150.736 451.159 150.71C449.819 150.794 448.498 151.067 447.232 151.52C448.214 143.888 450.387 136.483 451.238 128.879C451.238 128.613 450.884 128.52 450.806 128.759C447.978 136.35 446.669 145.109 445.451 152.953C445.347 153.948 448.881 152.714 449.614 152.422Z" fill="#253136"/>
<path d="M451.08 157.186C451.918 158.487 453.072 159.548 454.431 160.265C455.181 160.627 456.021 160.748 456.84 160.611C458.633 160.279 458.804 158.646 458.594 157.226C458.466 156.471 458.256 155.732 457.966 155.023C455.957 156.471 453.544 157.229 451.08 157.186Z" fill="#253136"/>
<path d="M454.432 160.265C455.181 160.627 456.022 160.748 456.84 160.611C458.634 160.279 458.804 158.646 458.594 157.226C457.665 157.184 456.748 157.461 455.992 158.013C455.237 158.564 454.687 159.358 454.432 160.265Z" fill="#FF98B9"/>
<path d="M495.902 141.898C492.04 142.017 481.084 132.249 479.094 113.484C479.094 113.484 482.039 130.206 483.505 132.555C484.972 134.904 477.379 127.047 475.559 111.944C475.559 111.944 467.836 118.766 460.95 121.42C454.064 124.074 449.757 124.419 449.168 123.942C448.579 123.464 458.698 119.19 461.212 115.66C461.212 115.66 443.238 126.277 434.651 127.711C433.656 127.87 435.332 112.196 447.912 102.11C460.492 92.0238 477.785 94.5454 483.99 99.5885C483.99 99.5885 490.771 99.9468 498.939 109.303C507.108 118.66 500.052 141.765 495.902 141.898Z" fill="#253136"/>
<path d="M490.811 147.631C490.811 147.631 497.998 136.045 503.142 138.593C508.287 141.141 503.273 157.664 497.5 160.173C496.782 160.549 495.995 160.774 495.189 160.833C494.382 160.893 493.572 160.786 492.807 160.52C492.043 160.253 491.339 159.832 490.739 159.282C490.14 158.732 489.656 158.064 489.318 157.319L490.811 147.631Z" fill="#EB9481"/>
<path d="M501.584 143.331C501.689 143.331 501.702 143.451 501.584 143.49C497.539 145.388 495.562 149.383 494.227 153.484C495.392 151.865 497.015 150.936 499.136 152.316C499.241 152.382 499.136 152.568 499.031 152.541C498.303 152.361 497.537 152.409 496.836 152.679C496.135 152.949 495.531 153.429 495.104 154.054C494.398 155.127 493.802 156.27 493.324 157.465C493.154 157.85 492.473 157.691 492.604 157.253C492.598 157.218 492.598 157.182 492.604 157.147C492.237 151.785 495.968 144.114 501.584 143.331Z" fill="#253136"/>
<path d="M512.645 206.463C527.15 223.437 567.81 284.884 558.384 301.486C549.339 317.412 528.826 321.898 517.018 300.504C508.522 285.202 494.24 239.549 490.692 217.651C487.812 199.92 499.241 190.763 512.645 206.463Z" fill="#EB9481"/>
<path d="M499.096 260.863L547.166 242.96C547.166 242.96 520.186 205.521 507.763 198.394C495.339 191.267 484.998 195.567 488.794 220C490.837 233.943 494.29 247.636 499.096 260.863Z" fill="#6E1255"/>
<path d="M538.63 236.005C536.012 236.868 533.394 237.558 530.776 238.46C528.158 239.363 525.644 240.279 523.105 241.247C517.96 243.185 512.829 245.123 507.736 247.206C504.882 248.374 502.029 249.635 499.24 250.962C499.109 250.962 499.162 251.241 499.24 251.201C509.713 248.149 519.871 244.088 529.977 240.04C532.91 238.859 535.724 237.385 538.617 236.204C538.814 236.151 538.722 235.965 538.63 236.005Z" fill="#253136"/>
<path d="M501.807 259.721C500.855 259.934 499.922 260.227 499.019 260.597C497.71 257.717 494.607 245.056 493.887 241.805C492.447 235.328 491.269 228.786 489.763 222.309C489.763 222.123 489.41 222.177 489.436 222.309C489.881 225.906 490.431 229.489 491.046 233.046C490.392 231.347 489.737 229.635 489.227 227.896C489.232 227.884 489.234 227.871 489.233 227.858C489.232 227.845 489.228 227.832 489.22 227.821C489.213 227.81 489.204 227.801 489.192 227.795C489.181 227.788 489.168 227.785 489.155 227.785C489.142 227.785 489.129 227.788 489.117 227.795C489.106 227.801 489.096 227.81 489.089 227.821C489.082 227.832 489.078 227.845 489.076 227.858C489.075 227.871 489.078 227.884 489.083 227.896C489.678 230.056 490.408 232.175 491.269 234.24C491.779 240.876 497.736 261.964 497.906 261.885C499.253 261.265 500.564 260.57 501.833 259.801C501.977 259.841 501.977 259.708 501.807 259.721Z" fill="#253136"/>
<path d="M478.034 134.798L464.355 194.001C463.766 195.74 464.643 197.133 466.318 197.107L492.434 202.495C493.349 202.41 494.222 202.063 494.95 201.494C495.677 200.926 496.231 200.159 496.545 199.283L510.225 140.08C510.814 138.341 509.937 136.948 508.261 136.987L482.145 131.586C481.23 131.671 480.358 132.018 479.63 132.587C478.902 133.155 478.349 133.922 478.034 134.798Z" fill="#A6A6A6"/>
<path d="M480.272 135.129L466.631 194.333C466.042 196.072 466.919 197.465 468.595 197.439L494.711 202.827C495.624 202.743 496.496 202.398 497.223 201.832C497.951 201.265 498.505 200.501 498.821 199.628L512.449 140.425C513.038 138.673 512.161 137.293 510.485 137.319L484.382 131.918C483.468 132.007 482.598 132.356 481.871 132.924C481.144 133.492 480.59 134.256 480.272 135.129Z" fill="#DBDBDB"/>
<path d="M488.545 137.677C488.558 138.208 488.413 138.731 488.13 139.178C487.847 139.625 487.438 139.975 486.956 140.184C486.474 140.392 485.942 140.45 485.428 140.348C484.914 140.247 484.441 139.991 484.072 139.615C483.702 139.238 483.453 138.758 483.355 138.236C483.258 137.714 483.317 137.175 483.525 136.687C483.734 136.2 484.081 135.787 484.523 135.502C484.966 135.218 485.482 135.074 486.005 135.09C486.68 135.093 487.326 135.367 487.802 135.852C488.278 136.337 488.545 136.993 488.545 137.677Z" fill="#253136"/>
<path d="M523.995 305.866C532.491 321.792 554.981 312.714 558.384 301.486C566.37 275.143 561.421 231.347 556.656 206.888C555.125 199.018 502.395 206.888 502.709 215.395C503.076 225.68 507.344 274.545 523.995 305.866Z" fill="#EB9481"/>
<path d="M556.068 218.58C558.724 206.975 558.885 194.925 556.539 183.251C553.764 170.524 544.692 143.53 508.221 131.493C499.568 128.626 485.234 130.763 497.749 140.637C506.598 147.658 514.295 149.396 518.694 154.439C518.694 154.439 500.786 159.35 498.298 168.241C496.121 176.025 494.489 183.954 493.416 191.971C494.818 192.504 496.252 192.947 497.709 193.298C496.94 201.04 498.717 208.822 502.762 215.435L556.068 218.58Z" fill="#EB9481"/>
<path d="M551.97 171.533C546.551 167.551 534.952 159.084 523.053 155.607C509.857 151.626 483.427 147.777 480.678 157.664C478.662 164.924 488.624 167.326 488.624 167.326C488.624 167.326 477.366 168.042 476.96 174.997C476.594 181.34 484.409 182.734 484.409 182.734C484.409 182.734 477.654 184.353 478.453 190.537C479.421 197.956 493.441 193.338 500.838 200C502.5 201.46 551.97 171.533 551.97 171.533Z" fill="#EB9481"/>
<path d="M521.299 170.378C515.591 167.405 500.904 164.048 488.834 167.087C488.559 167.087 488.467 167.392 488.729 167.392C499.661 167.093 510.588 168.136 521.273 170.498C521.338 170.524 521.364 170.405 521.299 170.378Z" fill="#253136"/>
<path d="M517.032 183.756C511.796 181.712 496.545 178.925 484.423 182.429C484.149 182.508 484.07 182.76 484.332 182.747C495.248 181.863 506.228 182.246 517.059 183.888C517.076 183.885 517.091 183.875 517.101 183.86C517.111 183.845 517.114 183.826 517.111 183.809C517.108 183.791 517.097 183.776 517.083 183.766C517.068 183.756 517.05 183.752 517.032 183.756Z" fill="#253136"/>
<path d="M519.177 294.771C518.785 293.444 518.405 292.117 517.986 290.909C517.122 288.255 516.376 285.601 515.617 282.946C514.072 277.638 512.593 272.249 511.297 266.835C508.71 256.042 506.748 245.106 505.419 234.081C505.052 231.029 504.738 227.976 504.411 224.924C504.084 221.871 503.979 218.699 503.403 215.634C503.403 215.474 501.871 213.139 501.269 211.984C500.644 210.783 500.098 209.542 499.633 208.268C498.654 205.669 497.991 202.96 497.656 200.199C497.649 200.182 497.638 200.167 497.622 200.157C497.607 200.146 497.589 200.141 497.571 200.141C497.553 200.141 497.535 200.146 497.52 200.157C497.505 200.167 497.493 200.182 497.486 200.199C497.316 203.341 497.706 206.488 498.638 209.489C499.445 212 500.837 214.276 502.696 216.125C502.696 216.523 502.788 221.433 502.945 224.18C503.102 226.928 503.351 229.675 503.652 232.409C504.267 237.903 505.026 243.384 505.982 248.839C507.85 259.872 510.448 270.766 513.758 281.447C513.758 281.619 513.876 281.792 513.928 281.964C513.928 282.362 513.928 282.76 513.928 283.159C513.947 284.14 514.026 285.12 514.164 286.092C514.432 288.025 514.902 289.925 515.564 291.758C515.558 291.774 515.556 291.792 515.559 291.809C515.561 291.826 515.567 291.842 515.576 291.856C515.586 291.87 515.599 291.882 515.614 291.889C515.629 291.897 515.646 291.902 515.662 291.902C515.679 291.902 515.696 291.897 515.711 291.889C515.726 291.882 515.739 291.87 515.748 291.856C515.758 291.842 515.764 291.826 515.766 291.809C515.768 291.792 515.767 291.774 515.761 291.758C515.296 289.84 514.981 287.888 514.818 285.919L514.582 283.902C515.302 286.052 516.062 288.202 516.808 290.338C517.332 291.825 517.868 293.271 518.47 294.718C519.073 296.165 519.544 297.571 520.251 298.912C520.251 299.018 520.46 298.912 520.434 298.832C520.107 297.412 519.583 296.111 519.177 294.771Z" fill="#253136"/>
<path d="M355.989 341.845V306.171L315.997 341.845H355.989Z" fill="white"/>
<path d="M150.451 417.478C161.971 468.295 185.796 529.21 195.967 539.098C208.835 551.599 293.964 574.532 298.206 574.997C308.678 576.072 329.794 499.35 318.588 497.691C301.57 495.196 239.572 491.785 235.868 487.923C232.163 484.061 205.851 450.431 178.962 412.648C160.4 386.543 143.29 385.946 150.451 417.478Z" fill="#AD6359"/>
<path d="M289.777 570.856C291.02 571.493 308.81 580.571 319.807 583.796C328.015 586.211 351.814 592.515 355.335 583.61C357.744 577.558 344.169 572.183 334.665 568.162C329.651 566.038 323.472 560.73 324.951 557.465C327.569 551.758 340.438 557.465 348.92 562.482C365.323 572.143 387.172 589.542 397.186 581.062C400.969 577.877 396.571 572.064 390.143 566.37C400.616 573.006 411.717 578.447 416.05 575.076C418.55 573.152 418.668 570.511 417.28 567.512C420.5 568.573 423.341 568.361 425.331 566.184C428.721 562.575 427.072 557.266 423.354 551.812C423.992 551.745 424.606 551.524 425.143 551.169C425.68 550.813 426.126 550.333 426.444 549.768C433.63 538.66 397.644 506.768 385.221 503.782C348.632 494.957 310.067 496.603 310.067 496.603C295.694 508.295 289.737 570.829 289.777 570.856Z" fill="#AD6359"/>
<path d="M343.579 536.709C352.291 538.088 360.613 541.332 367.993 546.224C377.274 552.435 383.427 559.708 391.203 567.021C391.234 567.062 391.25 567.113 391.248 567.165C391.246 567.217 391.226 567.266 391.192 567.305C391.158 567.344 391.112 567.37 391.062 567.379C391.011 567.387 390.959 567.378 390.915 567.352C387.21 563.875 371.842 550.79 367.875 547.817C360.7 542.343 352.392 538.595 343.579 536.855C343.461 536.841 343.487 536.682 343.579 536.709Z" fill="#253136"/>
<path d="M350.4 520.956C360.022 523.61 369.879 526.264 378.807 530.936C388.573 535.979 396.218 544.207 403.68 552.17C408.2 556.921 412.612 561.787 416.914 566.768C417.084 566.981 416.81 567.313 416.626 567.1C408.999 558.925 401.144 550.962 393.063 543.212C385.583 536.014 376.775 530.386 367.143 526.649C361.645 524.512 355.99 522.827 350.335 521.128C350.256 521.102 350.296 520.929 350.4 520.956Z" fill="#253136"/>
<path d="M360.677 507.193C370.024 509.144 378.179 510.803 386.452 515.873C397.409 522.601 407.987 533.922 411.691 537.943C415.789 542.376 419.742 546.941 423.617 551.573C423.774 551.758 423.46 552.05 423.29 551.865C414.409 541.709 404.89 532.147 394.791 523.238C390.041 518.925 384.663 515.38 378.847 512.727C372.951 510.381 366.868 508.552 360.664 507.259C360.664 507.259 360.598 507.18 360.677 507.193Z" fill="#253136"/>
<path d="M304.176 493.55L277.994 577.638C277.994 577.638 207.108 557.12 194.214 542.96C181.319 528.799 157.35 455.674 150.321 420.226C143.291 384.778 160.963 385.72 177.209 408.003C193.455 430.285 233.905 484.512 236.117 485.693C238.329 486.875 304.176 493.55 304.176 493.55Z" fill="#6E1255"/>
<path opacity="0.1" d="M304.176 493.55L277.994 577.638C277.994 577.638 207.108 557.12 194.214 542.96C181.319 528.799 157.35 455.674 150.321 420.226C143.291 384.778 160.963 385.72 177.209 408.003C193.455 430.285 233.905 484.512 236.117 485.693C238.329 486.875 304.176 493.55 304.176 493.55Z" fill="black"/>
<path d="M271.187 540.279C274.368 530.365 277.615 520.478 280.416 510.445C282.013 504.751 283.637 499.044 285.181 493.338C285.247 493.112 284.893 492.993 284.815 493.205C281.241 503.026 277.68 512.887 274.552 522.867C271.423 532.847 268.242 542.774 265.257 552.687C263.568 558.368 262.037 564.074 260.688 569.847C260.688 569.954 260.846 570.02 260.885 569.914C264.786 560.212 267.993 550.259 271.187 540.279Z" fill="#253136"/>
<path d="M242.242 566.078L239.1 564.964C233.196 562.827 227.174 560.531 221.506 558.182C220.773 557.89 220.053 557.585 219.346 557.279C218.207 556.802 217.068 556.311 215.969 555.819L214.319 555.09L213.73 554.824L212.028 554.028C209.777 552.979 207.643 551.931 205.653 550.869L204.344 550.126C201.234 548.504 198.302 546.551 195.6 544.3C195.351 544.074 195.102 543.849 194.88 543.623C194.657 543.397 194.421 543.172 194.225 542.959C181.265 528.799 157.362 455.674 150.332 420.226L150.096 419.005V418.739C149.625 416.085 149.206 412.714 148.866 409.104C147.884 391.466 156.118 388.587 166.289 396.337C191.646 451.506 230.486 542.668 242.242 566.078Z" fill="#253136"/>
<path d="M205.471 580.199L51.001 581.022C51.1319 577.651 73.1243 479.044 90.6135 442.654C113.038 395.992 124.649 392.223 131.496 389.728C140.332 386.516 156.067 388.109 159.798 389.9C164.039 391.904 177.523 415.766 182.353 433.271C192.014 468.48 207.645 578.049 205.471 580.199Z" fill="white"/>
<path d="M123.578 393.417C123.578 393.417 143.214 467.14 144.195 472.037C145.675 479.151 155.467 580.65 155.467 580.65L47.7954 581.022C47.7954 581.022 71.2933 487.06 88.7824 445.919C107.869 400.796 123.578 393.417 123.578 393.417Z" fill="#6E1255"/>
<g opacity="0.1">
<path d="M123.577 393.417C123.577 393.417 143.213 467.14 144.194 472.037C145.674 479.151 155.466 580.65 155.466 580.65L47.7944 581.022C47.7944 581.022 71.2923 487.06 88.7815 445.919C107.868 400.796 123.577 393.417 123.577 393.417Z" fill="black"/>
</g>
<path d="M161.211 391.042C161.787 393.391 179.891 453.285 181.148 468.215C182.549 484.778 194.933 581.022 194.933 581.022H210.641C210.641 581.022 187.903 442.747 181.659 428.135C168.882 398.315 161.211 391.042 161.211 391.042Z" fill="#6E1255"/>
<path opacity="0.1" d="M161.211 391.042C161.787 393.391 179.891 453.285 181.148 468.215C182.549 484.778 194.933 581.022 194.933 581.022H210.641C210.641 581.022 187.903 442.747 181.659 428.135C168.882 398.315 161.211 391.042 161.211 391.042Z" fill="black"/>
<path d="M103.247 410.657C77.3795 438.752 14.4916 545.348 34.4419 564.791C54.3921 584.234 165.153 558.062 196.256 543.026C205.511 538.567 170.35 480.066 159.471 478.699C150.413 477.571 104.124 499.031 102.775 496.337C101.27 493.285 108.627 470.763 119.793 429.98C132.609 382.973 114.688 398.235 103.247 410.657Z" fill="#AD6359"/>
<path d="M205.445 459.828C227.935 456.642 234.245 459.336 251.773 446.437C263.306 437.97 273.596 441.805 267.011 455.249C256.25 477.253 228.079 487.525 217.266 488.242L205.445 459.828Z" fill="#AD6359"/>
<path d="M145.7 481.752C145.7 481.752 170.978 467.525 194.62 461.739C210.957 457.757 247.48 453.046 282.432 489.609C290.719 498.275 296.466 516.589 277.864 507.419C264.642 500.902 258.228 492.727 249.836 490.352C249.836 490.352 254.418 514.519 245.53 522.601C237.761 529.664 229.506 536.157 220.827 542.031C219.4 540.669 218.062 539.215 216.822 537.678C216.822 537.678 207.815 544.433 190.876 542.787L145.7 481.752Z" fill="#AD6359"/>
<path d="M210.825 460.518C218.679 464.645 235.056 473.683 245.947 485.813C258.056 499.297 277.784 528.547 267.874 537.571C260.622 544.141 252.165 533.59 252.165 533.59C252.165 533.59 257.807 547.432 249.966 551.904C242.832 555.992 236.731 547.472 236.731 547.472C236.731 547.472 238.734 556.457 231.102 559.044C221.939 562.15 219.242 542.8 207.264 537.81C204.528 536.616 210.825 460.518 210.825 460.518Z" fill="#AD6359"/>
<path d="M229.781 496.35C236.496 501.46 248.828 517.027 252.231 533.152C252.31 533.524 252.087 533.776 251.943 533.457C246.03 520.26 238.557 507.84 229.689 496.47C229.584 496.35 229.689 496.35 229.781 496.35Z" fill="#253136"/>
<path d="M216.718 509.131C222.072 514.147 234.077 530.763 236.97 547.233C237.035 547.605 236.786 547.843 236.669 547.512C231.427 534.026 224.694 521.186 216.6 509.237C216.522 509.157 216.6 509.064 216.718 509.131Z" fill="#253136"/>
<path d="M249.837 490.192C257.168 492.382 261.933 496.032 268.164 500.385C271.197 502.582 274.348 504.607 277.602 506.45C280.587 508.082 284.998 510.551 288.166 507.989C289.947 506.569 289.92 504.008 289.475 501.924C288.58 498.908 287.219 496.055 285.443 493.47C285.443 493.364 285.535 493.245 285.614 493.338C287.328 495.693 288.802 498.218 290.012 500.876C290.805 502.697 291.037 504.718 290.68 506.676C289.593 510.763 284.828 511.307 281.516 510.179C279.509 509.432 277.58 508.485 275.756 507.352C273.976 506.317 272.248 505.202 270.52 504.035C267.038 501.646 263.7 499.058 260.244 496.629C256.886 494.344 253.388 492.278 249.771 490.445C249.744 490.431 249.722 490.409 249.709 490.381C249.696 490.353 249.693 490.321 249.701 490.291C249.709 490.261 249.727 490.235 249.751 490.217C249.776 490.199 249.806 490.19 249.837 490.192Z" fill="#253136"/>
<path d="M265.192 516.337C263.294 512.103 253.018 494.453 249.693 490.365C249.68 490.345 249.675 490.321 249.678 490.297C249.681 490.273 249.691 490.251 249.708 490.234C249.725 490.218 249.746 490.207 249.77 490.204C249.793 490.201 249.817 490.207 249.837 490.219C255.557 495.713 264.734 510.299 266.855 514.97C268.975 519.642 271.41 525.494 271.41 530.63C271.41 538.394 266.331 539.92 264.459 540.252C262.219 540.663 259.907 540.279 257.914 539.164C255.581 537.719 253.567 535.804 251.997 533.537C251.918 533.431 252.062 533.285 252.154 533.391C254.772 536.457 259.223 539.469 263.372 538.912C264.293 538.824 265.187 538.549 266.001 538.105C266.815 537.66 267.532 537.055 268.111 536.324C269.246 534.456 269.682 532.239 269.342 530.073C268.73 525.29 267.327 520.647 265.192 516.337Z" fill="#253136"/>
<path d="M145.699 481.752L181.149 557.399C181.149 557.399 42.4919 588.958 30.527 564.486C18.5621 540.013 72.4173 444.247 96.6744 416.35C124.806 384.021 128.393 395.023 122.201 423.676C115.656 453.669 103.18 497.04 103.18 497.04L145.699 481.752Z" fill="#6E1255"/>
<path opacity="0.1" d="M145.699 481.752L181.149 557.399C181.149 557.399 42.4919 588.958 30.527 564.486C18.5621 540.013 72.4173 444.247 96.6744 416.35C124.806 384.021 128.393 395.023 122.201 423.676C115.656 453.669 103.18 497.04 103.18 497.04L145.699 481.752Z" fill="black"/>
<path d="M61.0414 517.173C73.8309 508.168 87.875 501.15 102.709 496.35C106.911 495.023 111.153 493.762 115.394 492.528C115.525 492.528 115.577 492.701 115.394 492.741C107.997 495.167 100.745 498.03 93.6766 501.314C86.6163 504.499 79.6346 507.812 72.7314 511.254C68.8042 513.205 64.9817 515.342 61.133 517.425C61.1072 517.42 61.0832 517.407 61.0633 517.39C61.0433 517.372 61.0281 517.35 61.019 517.325C61.0098 517.3 61.0071 517.273 61.011 517.246C61.0149 517.22 61.0254 517.195 61.0414 517.173Z" fill="#253136"/>
<path d="M145.332 481.553C144.639 481.739 106.715 494.439 105.471 495.023C105.628 494.439 112.436 474.001 113.457 471.002C113.548 470.71 113.64 470.405 113.745 470.113C114.425 468.786 115.132 467.459 115.774 466.131C116.585 464.393 117.397 462.628 118.195 460.823H118.117L115.499 465.959C115.093 466.742 114.713 467.551 114.334 468.361C115.001 466.251 115.643 464.127 116.284 461.991C117.305 458.606 118.222 455.182 119.125 451.758C119.125 451.639 118.994 451.612 118.955 451.758C116.939 457.717 114.739 463.61 112.71 469.569C110.681 475.528 102.879 497.439 102.945 497.439C103.01 497.439 144.704 482.495 145.516 482.163C145.555 482.151 145.592 482.131 145.624 482.104C145.656 482.078 145.682 482.045 145.702 482.008C145.721 481.971 145.733 481.931 145.737 481.889C145.741 481.847 145.737 481.805 145.725 481.765C145.713 481.725 145.693 481.688 145.667 481.655C145.641 481.623 145.609 481.596 145.572 481.576C145.536 481.557 145.496 481.545 145.455 481.54C145.414 481.536 145.372 481.541 145.332 481.553Z" fill="#253136"/>
<path d="M147.886 530.856C143.959 522.429 140.149 513.948 135.947 505.64C133.552 500.929 131.182 496.204 128.747 491.52C128.656 491.347 128.342 491.52 128.42 491.666C132.007 500.292 135.62 508.918 139.6 517.399C143.579 525.879 147.454 534.253 151.499 542.614C153.803 547.366 156.251 552.042 158.843 556.642C158.843 556.735 159.052 556.642 159.013 556.642C155.714 547.857 151.826 539.376 147.886 530.856Z" fill="#253136"/>
<path d="M182.942 558.567C181.554 556.231 179.8 552.887 178.321 550.604C177.928 550.007 177.47 550.126 177.784 550.75C178.844 552.873 179.721 555.249 180.756 557.386C178.818 557.784 176.828 558.129 174.917 558.54C172.665 559.018 170.427 559.509 168.175 559.973C163.759 560.858 159.343 561.743 154.928 562.628C145.973 564.318 136.985 565.804 127.961 567.087C109.883 569.771 91.6796 571.503 73.4247 572.276C68.3193 572.462 63.2009 572.555 58.0955 572.488C53.0594 572.501 48.026 572.253 43.015 571.745C42.871 571.745 42.8448 571.971 43.015 571.997C47.3269 572.921 51.7041 573.498 56.1057 573.723C60.7267 573.948 65.3609 574.054 69.995 574.001C79.1585 573.895 88.4136 573.285 97.5902 572.435C115.786 570.737 133.93 568.242 151.917 565.017C156.961 564.132 161.992 563.172 167.01 562.137C169.55 561.619 172.076 561.101 174.603 560.531C177.129 559.96 183.177 558.965 182.942 558.567Z" fill="#253136"/>
<path d="M161.238 418.553C152.074 421.115 135.672 407.379 128.969 395.992C128.511 395.209 129.414 386.768 130.03 376.456C130.383 370.206 130.619 363.185 130.383 356.841C130.383 355.514 170.218 365.096 170.218 365.096C170.218 365.096 166.815 378.606 167.286 389.728C167.327 390.622 167.45 391.511 167.652 392.382C167.688 392.522 167.715 392.664 167.731 392.807C168.713 397.731 170.1 416.072 161.238 418.553Z" fill="#AD6359"/>
<path d="M132.818 357.001C135.043 367.724 142.61 393.537 163.686 393.232C165.037 393.218 166.386 393.094 167.718 392.86C167.734 392.715 167.734 392.568 167.718 392.422C167.523 391.549 167.397 390.661 167.338 389.768C166.88 378.633 170.27 365.11 170.27 365.11C170.27 365.11 141.445 358.208 132.818 357.001Z" fill="#253136"/>
<path d="M174.971 337.691C174.526 347.485 181.045 355.74 189.528 356.138C198.01 356.536 205.236 348.892 205.668 339.098C206.1 329.303 199.581 321.048 191.112 320.664C182.642 320.279 175.403 327.896 174.971 337.691Z" fill="#6E1255"/>
<path d="M204.111 339.638C204.597 328.743 197.345 319.56 187.912 319.128C178.48 318.695 170.439 327.177 169.953 338.072C169.467 348.967 176.719 358.15 186.152 358.583C195.584 359.015 203.625 350.534 204.111 339.638Z" fill="#2A2A2A"/>
<path d="M135.58 306.025C128.721 319.137 128.289 360.823 136.353 371.732C148.043 387.525 171.017 393.324 185.181 378.235C198.966 363.557 198.573 309.224 189.213 298.912C175.455 283.689 145.713 286.662 135.58 306.025Z" fill="#AD6359"/>
<path d="M169.773 338.248C169.773 338.142 169.55 338.394 169.563 338.514C169.707 341.314 169.419 344.552 166.945 345.534C166.867 345.534 166.88 345.707 166.945 345.693C170.008 345.189 170.349 340.889 169.773 338.248Z" fill="#253136"/>
<path d="M167.234 335.382C162.77 335.143 162.626 344.207 166.75 344.419C170.873 344.632 170.978 335.581 167.234 335.382Z" fill="#253136"/>
<path d="M185.273 338.593C185.273 338.487 185.482 338.739 185.482 338.845C185.351 341.659 185.666 344.897 188.1 345.866C188.179 345.866 188.1 346.039 188.1 346.025C185.076 345.534 184.697 341.234 185.273 338.593Z" fill="#253136"/>
<path d="M187.799 335.766C192.25 335.488 192.459 344.552 188.323 344.804C184.186 345.056 184.055 335.926 187.799 335.766Z" fill="#253136"/>
<path d="M163.228 328.135C164.537 328.069 165.624 327.79 166.867 327.605C168.179 327.579 169.446 327.112 170.467 326.277C170.741 325.958 170.903 325.555 170.927 325.132C170.95 324.709 170.835 324.291 170.598 323.942C170.026 323.331 169.303 322.886 168.505 322.653C167.706 322.42 166.861 322.406 166.056 322.614C164.35 322.752 162.757 323.533 161.592 324.804C161.348 325.109 161.195 325.478 161.153 325.868C161.11 326.258 161.179 326.653 161.352 327.004C161.525 327.355 161.793 327.649 162.126 327.849C162.459 328.05 162.841 328.149 163.228 328.135Z" fill="#253136"/>
<path d="M192 329.131C190.805 328.864 189.625 328.532 188.466 328.135C187.178 327.978 185.977 327.395 185.049 326.476C184.814 326.126 184.701 325.706 184.727 325.284C184.753 324.861 184.917 324.459 185.193 324.141C185.834 323.597 186.605 323.235 187.428 323.093C188.252 322.951 189.098 323.033 189.88 323.331C191.554 323.688 193.037 324.662 194.043 326.065C194.238 326.398 194.337 326.781 194.326 327.169C194.315 327.557 194.196 327.934 193.981 328.255C193.767 328.577 193.467 328.83 193.116 328.985C192.766 329.14 192.379 329.19 192 329.131Z" fill="#253136"/>
<path d="M164.72 364.273C165.374 364.937 166.029 365.853 167.024 365.959C168.053 365.949 169.069 365.724 170.008 365.295C170.027 365.291 170.047 365.293 170.065 365.299C170.083 365.305 170.099 365.317 170.111 365.332C170.123 365.347 170.131 365.365 170.134 365.384C170.136 365.404 170.134 365.423 170.126 365.441C169.725 365.989 169.183 366.416 168.561 366.675C167.938 366.935 167.257 367.018 166.592 366.914C166.029 366.755 165.525 366.43 165.143 365.982C164.761 365.533 164.518 364.981 164.445 364.393C164.406 364.234 164.615 364.167 164.72 364.273Z" fill="#253136"/>
<path d="M167.769 355.912C168.453 357.034 169.358 358 170.429 358.749C171.499 359.499 172.711 360.015 173.987 360.265C175.101 360.506 176.243 360.582 177.378 360.491C177.597 360.483 177.816 360.461 178.032 360.425L178.635 360.332C178.783 360.307 178.919 360.234 179.023 360.124C179.127 360.014 179.193 359.873 179.211 359.721C179.217 359.624 179.217 359.527 179.211 359.429V359.177C179.302 357.014 179.211 353.723 179.211 353.723C179.983 354.134 183.936 356.019 183.884 354.891C183.491 345.521 183.046 335.116 180.703 325.893C180.69 325.834 180.657 325.782 180.611 325.744C180.565 325.707 180.507 325.686 180.448 325.686C180.388 325.686 180.331 325.707 180.284 325.744C180.238 325.782 180.206 325.834 180.192 325.893C180.192 334.904 181.816 343.849 181.986 352.9C180.584 352.213 179.095 351.726 177.561 351.453C177.26 351.546 177.967 357.81 177.849 358.779C177.852 358.814 177.852 358.85 177.849 358.885C174.249 359.283 171.566 358.142 168.136 355.647C167.822 355.501 167.599 355.674 167.769 355.912Z" fill="#253136"/>
<path d="M176.136 359.363C174.945 360.891 173.385 362.079 171.606 362.814C170.625 363.182 169.554 363.233 168.543 362.959C166.344 362.322 166.318 360.305 166.75 358.514C166.991 357.591 167.338 356.7 167.784 355.859C170.129 357.899 173.055 359.127 176.136 359.363Z" fill="#253136"/>
<path d="M171.606 362.814C170.625 363.182 169.554 363.233 168.543 362.959C166.344 362.322 166.318 360.305 166.75 358.514C169.119 358.806 171.436 360.478 171.606 362.814Z" fill="#FF98B9"/>
<path opacity="0.2" d="M130.437 335.461C133.133 335.023 139.6 325.773 142.336 322.097C145.072 318.421 146.656 298.713 146.905 294.227C142.104 296.979 138.173 301.057 135.568 305.985C132.505 311.878 130.738 323.464 130.437 335.461Z" fill="#253136"/>
<path d="M180.35 310.551C178.751 312.328 176.731 313.662 174.482 314.427C172.232 315.191 169.827 315.36 167.495 314.917C165.115 314.473 162.886 313.419 161.021 311.856C159.156 310.293 157.716 308.272 156.839 305.985C156.839 305.839 156.577 305.919 156.629 306.052C157.337 308.542 158.703 310.79 160.578 312.551C162.454 314.312 164.769 315.52 167.272 316.045C169.76 316.426 172.302 316.136 174.644 315.204C176.986 314.272 179.044 312.731 180.612 310.737C180.621 310.702 180.619 310.666 180.607 310.633C180.595 310.6 180.573 310.571 180.545 310.551C180.516 310.531 180.482 310.52 180.447 310.52C180.412 310.52 180.378 310.531 180.35 310.551Z" fill="#253136"/>
<path d="M167.051 275.222C158.974 275.143 151.434 279.429 148.305 284.897C146.567 288.013 145.921 291.634 146.472 295.169C146.472 295.315 146.773 295.289 146.76 295.169C146.692 292.053 147.453 288.976 148.961 286.261C150.47 283.545 152.671 281.291 155.335 279.735C158.251 277.923 161.542 276.821 164.95 276.517C168.357 276.214 171.787 276.715 174.971 277.983C178.074 279.147 180.664 281.397 182.275 284.327C182.433 284.632 183.035 284.459 182.917 284.154C180.875 278.952 174.342 275.289 167.051 275.222Z" fill="#253136"/>
<path d="M213.327 294.453C212.13 290.374 209.552 286.855 206.049 284.512C201.192 281.248 195.576 281.526 190.026 281.924C189.994 281.924 189.964 281.937 189.942 281.959C189.92 281.982 189.908 282.012 189.908 282.044C189.908 282.075 189.92 282.106 189.942 282.128C189.964 282.151 189.994 282.163 190.026 282.163C194.764 281.845 199.595 281.792 203.862 284.194C207.415 286.143 210.19 289.281 211.717 293.072C213.17 296.961 213.188 301.251 211.769 305.153C210.35 309.054 207.589 312.305 203.993 314.307C201.896 315.405 199.6 316.057 197.246 316.224C194.891 316.39 192.528 316.068 190.3 315.275C190.117 315.209 189.986 315.461 190.156 315.541C193.165 316.743 196.444 317.072 199.627 316.493C202.809 315.913 205.77 314.447 208.178 312.258C210.585 310.069 212.344 307.245 213.258 304.1C214.172 300.955 214.205 297.615 213.353 294.453H213.327Z" fill="#253136"/>
<path d="M132.661 314.054C132.661 314.054 125.514 299.151 132.216 290.922C136.013 286.264 148.03 287.326 148.03 287.326C148.03 287.326 152.153 280.465 162.207 278.514C172.261 276.563 184.121 282.946 184.121 282.946C184.121 282.946 193.887 277.757 202.658 283.278C214.897 290.975 212.646 310.206 199.843 315.939C190.863 319.92 179.16 311.613 179.16 311.613C177.995 311.732 165.925 318.5 157.39 307.498C157.39 307.498 149.902 313.762 143.553 308.945C142.473 310.826 140.849 312.324 138.901 313.238C136.953 314.152 134.775 314.437 132.661 314.054Z" fill="#253136"/>
<path d="M137.806 340.504C137.806 340.504 131.012 325.906 124.611 328.082C118.209 330.259 121.757 350.458 128.171 354.254C128.963 354.798 129.855 355.174 130.793 355.361C131.732 355.547 132.698 355.538 133.633 355.336C134.569 355.134 135.454 354.743 136.237 354.185C137.019 353.627 137.682 352.914 138.186 352.09L137.806 340.504Z" fill="#AD6359"/>
<path d="M125.762 333.829C125.658 333.829 125.605 333.962 125.762 334.015C130.239 336.828 132.007 341.805 132.975 346.808C131.863 344.751 130.069 343.424 127.399 344.725C127.371 344.743 127.35 344.77 127.338 344.801C127.326 344.833 127.325 344.867 127.334 344.899C127.342 344.932 127.361 344.961 127.387 344.982C127.412 345.003 127.444 345.015 127.477 345.017C128.371 344.894 129.281 345.053 130.082 345.474C130.883 345.894 131.537 346.555 131.954 347.366C132.633 348.729 133.168 350.162 133.551 351.639C133.708 352.117 134.52 352.011 134.441 351.48C134.448 351.44 134.448 351.4 134.441 351.36C135.541 345.163 132.255 335.62 125.762 333.829Z" fill="#253136"/>
<path d="M152.611 369.9L139.716 364.26L129.349 351.174L131.338 349.542L141.314 362.137L153.632 367.525L152.611 369.9Z" fill="#2A2A2A"/>
<path d="M151.236 367.817C152.545 364.008 163.018 365.415 161.12 371.174C159.222 376.934 149.967 371.599 151.236 367.817Z" fill="#37474F"/>
<path d="M124.414 327.684C124.414 327.684 123.013 306.277 129.192 294.506C136.077 281.354 164.615 268.839 184.173 282.973C184.173 282.973 152.402 277.213 137.596 295.448C131.365 303.119 131.522 328.281 131.522 328.281L124.414 327.684Z" fill="#2A2A2A"/>
<path d="M127.295 358.429C136.736 358.334 144.304 349.416 144.197 338.51C144.09 327.604 136.349 318.84 126.907 318.936C117.465 319.031 109.898 327.949 110.005 338.855C110.112 349.761 117.853 358.525 127.295 358.429Z" fill="#2A2A2A"/>
<path d="M139.206 337.943C139.297 347.75 132.503 355.766 124.021 355.846C115.538 355.926 108.574 348.056 108.482 338.248C108.39 328.441 115.184 320.425 123.667 320.345C132.15 320.265 139.114 328.135 139.206 337.943Z" fill="#6E1255"/>
<path d="M167.574 392.143L158.345 415.766L129.31 386.065L121.167 395.673C121.167 395.673 149.64 442.933 149.81 440.796L159.301 420.425L173.203 434.506L171.894 399.018L167.574 392.143Z" fill="white"/>
<path d="M173.543 416.921C173.137 411.068 172.902 405.163 172.234 399.336C172.234 399.137 171.894 399.044 171.842 399.336C170.716 405.003 172.378 427.366 172.378 432.741H172.313C171.737 432.13 159.432 420.358 159.314 420.544C157.258 423.782 150.281 438.606 149.81 439.96C145.307 432.449 126.247 402.867 120.879 395.766C120.853 395.721 120.81 395.687 120.76 395.674C120.71 395.66 120.656 395.667 120.611 395.693C120.566 395.72 120.533 395.763 120.519 395.814C120.506 395.865 120.513 395.92 120.539 395.965C124.466 403.928 149.208 442.96 149.548 442.853C153.221 435.855 156.537 428.67 159.484 421.327C161.565 423.888 173.975 437.186 174.015 436.311C174.195 429.843 174.038 423.371 173.543 416.921Z" fill="#253136"/>
<path d="M484.748 330.033H444.259C440.333 330.03 436.569 328.447 433.793 325.633C431.018 322.819 429.457 319.003 429.453 315.023C429.453 311.042 431.013 307.224 433.79 304.41C436.566 301.595 440.332 300.013 444.259 300.013H484.748C488.675 300.013 492.441 301.595 495.217 304.41C497.994 307.224 499.554 311.042 499.554 315.023C499.554 316.994 499.171 318.946 498.427 320.767C497.683 322.588 496.592 324.243 495.217 325.637C493.843 327.031 492.21 328.136 490.414 328.891C488.618 329.645 486.693 330.033 484.748 330.033Z" fill="#6E1255"/>
<path d="M453.107 314.758C453.136 314.283 453.29 313.825 453.553 313.431L453.919 312.887L454.691 312.104L455.595 311.44C456.839 310.638 458.227 310.092 459.679 309.834C463.028 309.157 466.475 309.157 469.824 309.834C471.259 310.083 472.629 310.62 473.856 311.413C474.17 311.626 474.485 311.865 474.786 312.09L475.545 312.86C475.743 313.151 475.927 313.452 476.095 313.762C476.223 314.082 476.328 314.41 476.409 314.745H469.772C469.72 314.751 469.668 314.741 469.623 314.714C469.578 314.688 469.543 314.647 469.523 314.599C469.342 314.242 469.071 313.94 468.737 313.723C468.404 313.507 468.021 313.383 467.625 313.364C465.694 313.238 463.757 313.238 461.826 313.364C461.433 313.381 461.052 313.503 460.721 313.717C460.39 313.932 460.121 314.231 459.941 314.585C459.941 314.678 459.849 314.745 459.718 314.745H453.107V314.758Z" fill="white"/>
<path d="M453.107 318.514V316.058H459.652C459.652 316.204 459.652 316.364 459.652 316.536V318.514C459.67 318.629 459.661 318.748 459.625 318.859C459.589 318.97 459.528 319.071 459.447 319.154C459.365 319.237 459.265 319.299 459.155 319.335C459.045 319.372 458.929 319.381 458.815 319.363H453.932C453.818 319.382 453.702 319.373 453.592 319.336C453.483 319.3 453.383 319.238 453.303 319.155C453.222 319.071 453.162 318.97 453.128 318.858C453.094 318.747 453.087 318.629 453.107 318.514Z" fill="white"/>
<path d="M469.824 318.593C469.824 317.757 469.824 316.921 469.824 316.098H476.304V316.244C476.304 317.014 476.304 317.797 476.304 318.567C476.316 318.678 476.304 318.79 476.268 318.896C476.231 319.002 476.172 319.098 476.094 319.177C476.016 319.256 475.921 319.316 475.817 319.353C475.713 319.39 475.602 319.402 475.492 319.39H470.557C470.455 319.394 470.353 319.376 470.259 319.337C470.164 319.298 470.079 319.238 470.009 319.163C469.94 319.087 469.887 318.997 469.855 318.899C469.823 318.8 469.812 318.696 469.824 318.593Z" fill="white"/>
<path d="M318.628 582.615H309.647V588.56H318.628V582.615Z" fill="#6E1255"/>
<path d="M330.265 582.216H321.285V588.162H330.265V582.216Z" fill="#6E1255"/>
<path d="M341.917 581.818H332.937V587.764H341.917V581.818Z" fill="#6E1255"/>
<path d="M353.568 581.433H344.587V587.379H353.568V581.433Z" fill="#6E1255"/>
<path d="M365.218 581.035H356.238V586.981H365.218V581.035Z" fill="#6E1255"/>
<path d="M376.868 580.65H367.888V586.596H376.868V580.65Z" fill="#6E1255"/>
<path d="M388.52 580.252H379.54V586.198H388.52V580.252Z" fill="#6E1255"/>
<path d="M400.17 579.854H391.189V585.8H400.17V579.854Z" fill="#6E1255"/>
<path d="M411.808 579.469H402.828V585.415H411.808V579.469Z" fill="#6E1255"/>
<path d="M414.019 591.971H307.435V584.738L414.019 581.725V591.971Z" fill="#37474F"/>
<path d="M518.039 563.451H342.1L370.074 430.657H546.014L518.039 563.451Z" fill="#6E1255"/>
<path d="M524.545 563.451H348.605L376.58 430.657H552.52L524.545 563.451Z" fill="#37474F"/>
<path d="M461.715 496.817C466.488 492.345 467.303 485.369 463.535 481.234C459.767 477.1 452.842 477.374 448.069 481.846C443.295 486.318 442.48 493.294 446.248 497.429C450.017 501.563 456.941 501.289 461.715 496.817Z" fill="#253136"/>
<path d="M474.787 598.129H388.258V591.307L474.787 588.48V598.129Z" fill="#6E1255"/>
<path d="M498.311 598.116H451.852L423.864 523.703H470.323L498.311 598.116Z" fill="#6E1255"/>
<path d="M505.955 598.116H459.496L431.521 523.703H477.98L505.955 598.116Z" fill="#253136"/>
<path d="M304.15 599.934H214.937C207.331 599.934 218.34 577.956 246.132 569.529C273.924 561.102 312.921 591.692 304.15 599.934Z" fill="#37474F"/>
<path d="M269.145 599.934C269.217 597.429 269.626 594.947 270.362 592.555C271.081 590.144 272.088 587.831 273.36 585.667C274.64 583.493 276.238 581.529 278.099 579.841C279.94 578.147 282.063 576.799 284.37 575.859C283.414 576.656 282.327 577.186 281.45 578.076L280.141 579.257L278.832 580.584C277.178 582.334 275.728 584.271 274.512 586.357C273.277 588.444 272.217 590.633 271.344 592.9C270.456 595.192 269.721 597.542 269.145 599.934Z" fill="#253136"/>
<path d="M279.709 579.018C285.008 580.796 290.023 583.349 294.594 586.596C296.904 588.214 298.994 590.133 300.812 592.303C301.704 593.412 302.472 594.618 303.103 595.899C303.725 597.179 304.081 598.575 304.15 600C303.838 598.649 303.292 597.364 302.54 596.204C301.827 595.042 300.993 593.961 300.052 592.979C298.145 591.02 296.064 589.243 293.834 587.671C291.622 586.052 289.279 584.605 286.936 583.172C285.757 582.455 284.553 581.765 283.349 581.102C282.144 580.438 280.927 579.695 279.709 579.018Z" fill="#253136"/>
<path d="M310.538 298.461C309.768 305.863 306.985 312.902 302.499 318.794C298.013 324.686 292.001 329.199 285.133 331.829C278.265 334.46 270.811 335.104 263.603 333.69C256.395 332.276 249.716 328.86 244.312 323.822L224.453 326.822L234.376 309.449C231.896 303.329 230.961 296.679 231.653 290.1C232.161 284.824 233.694 279.703 236.163 275.031C238.632 270.359 241.988 266.228 246.038 262.876C250.088 259.525 254.752 257.018 259.762 255.502C264.772 253.985 270.028 253.488 275.228 254.04C280.427 254.591 285.468 256.18 290.06 258.715C294.651 261.249 298.703 264.68 301.981 268.809C305.26 272.938 307.7 277.683 309.162 282.772C310.624 287.861 311.078 293.193 310.498 298.461H310.538Z" fill="white"/>
<path d="M310.538 298.461C309.776 305.869 307.008 312.919 302.54 318.832C301.429 320.303 300.232 321.703 298.953 323.026C297.627 324.302 296.228 325.499 294.764 326.609C291.847 328.86 288.63 330.679 285.208 332.011C281.787 333.369 278.196 334.235 274.539 334.585C272.707 334.76 270.865 334.795 269.028 334.691C267.187 334.648 265.353 334.457 263.542 334.121C256.225 332.759 249.425 329.359 243.906 324.3L244.378 324.446L224.571 327.538L223.145 327.804L223.865 326.476L233.735 309.051V309.741C231.419 304.033 230.418 297.864 230.807 291.704C231.197 285.545 232.968 279.556 235.984 274.195C239.001 268.833 243.184 264.24 248.216 260.764C253.247 257.288 258.994 255.022 265.02 254.138C271.045 253.253 277.191 253.774 282.988 255.659C288.785 257.545 294.082 260.747 298.474 265.021C302.867 269.295 306.241 274.528 308.338 280.323C310.435 286.117 311.201 292.321 310.577 298.461H310.538ZM310.538 298.461C311.16 292.412 310.406 286.3 308.336 280.593C306.265 274.885 302.933 269.735 298.594 265.536C294.255 261.337 289.025 258.202 283.306 256.37C277.586 254.539 271.528 254.06 265.598 254.97C259.717 255.859 254.115 258.102 249.221 261.526C244.382 264.979 240.336 269.452 237.361 274.638C234.434 279.851 232.707 285.668 232.308 291.652C231.942 297.649 232.904 303.653 235.123 309.224L235.267 309.582L235.07 309.9L225.095 327.246L224.388 326.185L244.234 323.371H244.509L244.705 323.557C250.002 328.584 256.574 332.017 263.686 333.471C265.46 333.832 267.259 334.054 269.067 334.134C270.871 334.26 272.682 334.26 274.486 334.134C278.108 333.854 281.673 333.059 285.077 331.772C288.497 330.518 291.717 328.761 294.633 326.556C296.094 325.455 297.492 324.272 298.822 323.013C300.105 321.704 301.307 320.317 302.422 318.859C306.939 312.953 309.749 305.891 310.538 298.461Z" fill="#253136"/>
<path d="M293.218 295.501C293.221 296.465 292.941 297.408 292.415 298.211C291.888 299.013 291.139 299.64 290.261 300.01C289.384 300.381 288.417 300.479 287.484 300.293C286.552 300.106 285.694 299.644 285.021 298.963C284.348 298.282 283.889 297.414 283.703 296.469C283.516 295.524 283.611 294.544 283.974 293.653C284.337 292.763 284.953 292.001 285.743 291.465C286.534 290.93 287.463 290.644 288.414 290.644C289.044 290.642 289.668 290.766 290.251 291.01C290.834 291.253 291.364 291.61 291.81 292.062C292.256 292.513 292.61 293.049 292.852 293.639C293.094 294.229 293.218 294.862 293.218 295.501Z" fill="#253136"/>
<path d="M276.018 295.501C276.02 296.465 275.74 297.409 275.214 298.212C274.687 299.015 273.936 299.641 273.058 300.012C272.18 300.382 271.213 300.479 270.279 300.292C269.346 300.104 268.489 299.64 267.816 298.958C267.144 298.276 266.686 297.407 266.501 296.461C266.316 295.515 266.412 294.535 266.777 293.644C267.143 292.754 267.76 291.993 268.553 291.459C269.345 290.925 270.275 290.641 271.227 290.644C272.497 290.644 273.716 291.155 274.614 292.066C275.513 292.977 276.018 294.213 276.018 295.501Z" fill="#253136"/>
<path d="M258.83 295.501C258.833 296.465 258.553 297.408 258.027 298.211C257.501 299.013 256.751 299.64 255.874 300.01C254.996 300.381 254.03 300.479 253.097 300.293C252.164 300.106 251.307 299.644 250.633 298.963C249.96 298.282 249.501 297.414 249.315 296.469C249.129 295.524 249.223 294.544 249.586 293.653C249.949 292.763 250.565 292.001 251.355 291.465C252.146 290.93 253.075 290.644 254.026 290.644C255.298 290.644 256.518 291.155 257.418 292.065C258.319 292.976 258.827 294.211 258.83 295.501Z" fill="#253136"/>
<path d="M327.333 90.073C328.103 97.4748 330.886 104.514 335.37 110.407C339.855 116.299 345.866 120.813 352.733 123.446C359.6 126.078 367.053 126.726 374.262 125.316C381.47 123.906 388.151 120.494 393.559 115.461L413.378 118.407L403.469 101.035C405.741 95.3782 406.712 89.2704 406.307 83.1761C405.902 77.0817 404.132 71.1611 401.131 65.8643C398.131 60.5675 393.979 56.0338 388.99 52.6079C384.002 49.1819 378.31 46.9538 372.345 46.0929C366.38 45.232 360.3 45.7609 354.567 47.6395C348.834 49.5181 343.599 52.6969 339.259 56.9343C334.92 61.1717 331.59 66.3563 329.524 72.0939C327.457 77.8315 326.708 83.9713 327.333 90.0465V90.073Z" fill="white"/>
<path d="M339.195 56.8813C343.512 52.5651 348.75 49.3126 354.504 47.3751C360.258 45.4375 366.374 44.8667 372.38 45.7067C378.428 46.5154 384.214 48.7172 389.293 52.1434C396.988 57.3505 402.67 65.0941 405.378 74.0625C408.086 83.0308 407.652 92.6723 404.151 101.354V100.664L413.995 118.116L414.715 119.443L413.289 119.217L393.469 116.138L393.94 115.992C388.422 121.051 381.622 124.452 374.304 125.813C372.494 126.149 370.66 126.34 368.819 126.384C366.986 126.481 365.149 126.445 363.321 126.277C355.98 125.568 348.975 122.812 343.083 118.315C341.619 117.204 340.22 116.008 338.894 114.731C337.618 113.406 336.421 112.005 335.307 110.538C329.373 102.677 326.489 92.8838 327.2 83.0121C327.912 73.1403 332.171 63.876 339.169 56.9742L339.195 56.8813ZM335.451 110.352C336.566 111.805 337.769 113.188 339.051 114.492C340.374 115.76 341.773 116.943 343.24 118.036C346.155 120.253 349.38 122.015 352.809 123.265C356.21 124.545 359.77 125.34 363.387 125.627C365.195 125.753 367.011 125.753 368.819 125.627C370.623 125.546 372.417 125.324 374.187 124.964C381.299 123.51 387.871 120.077 393.168 115.05L393.364 114.864H393.639L413.485 117.678L412.778 118.739L402.803 101.394L402.606 101.062L402.751 100.703C404.973 95.1541 405.926 89.1664 405.538 83.1901C405.15 77.2138 403.432 71.4042 400.512 66.1978C397.541 61.0085 393.494 56.5348 388.652 53.0856C383.762 49.6638 378.165 47.4213 372.288 46.5296C364.521 45.3137 356.573 46.4934 349.475 49.9153C342.378 53.3372 336.459 58.8433 332.487 65.7187C328.515 72.5942 326.674 80.5214 327.203 88.4711C327.731 96.4208 330.605 104.026 335.451 110.299V110.352Z" fill="#253136"/>
<path d="M370.284 90.803V95.8196C370.295 96.3193 370.206 96.816 370.022 97.2798C369.838 97.7436 369.564 98.1649 369.215 98.5183C368.867 98.8717 368.451 99.1499 367.993 99.3362C367.536 99.5224 367.046 99.6128 366.553 99.6019C365.565 99.5984 364.618 99.1988 363.919 98.4902C363.22 97.7817 362.826 96.8216 362.822 95.8196V87.8567C362.822 87.7771 362.901 87.7771 362.901 87.6975C362.901 87.6179 362.822 87.6179 362.822 87.5515C362.849 86.5568 363.25 85.6103 363.944 84.9067C364.638 84.2031 365.572 83.796 366.553 83.7691C367.727 83.8626 368.907 83.7088 370.019 83.3177C371.131 82.9265 372.151 82.3064 373.015 81.4962C373.88 80.6861 374.569 79.7034 375.041 78.61C375.513 77.5166 375.756 76.3361 375.756 75.1427C375.756 73.9493 375.513 72.7689 375.041 71.6755C374.569 70.5821 373.88 69.5994 373.015 68.7893C372.151 67.9791 371.131 67.3589 370.019 66.9678C368.907 66.5766 367.727 66.4229 366.553 66.5163C365.075 66.5103 363.621 66.8997 362.338 67.6454C361.056 68.391 359.99 69.4665 359.249 70.7632C358.994 71.2023 358.655 71.5856 358.253 71.8906C357.851 72.1957 357.392 72.4164 356.905 72.54C356.417 72.6635 355.911 72.6874 355.414 72.6102C354.917 72.533 354.441 72.3563 354.012 72.0903C353.59 71.8385 353.221 71.5046 352.927 71.1078C352.633 70.711 352.418 70.2592 352.297 69.7782C352.175 69.2973 352.148 68.7967 352.218 68.3052C352.288 67.8138 352.453 67.3411 352.703 66.9145C354.028 64.584 355.903 62.6241 358.161 61.2113C360.418 59.7984 362.987 58.9769 365.635 58.8209C368.284 58.6648 370.929 59.179 373.333 60.3171C375.737 61.4553 377.824 63.1817 379.406 65.3409C380.988 67.5 382.015 70.0242 382.395 72.6861C382.776 75.3479 382.497 78.0639 381.585 80.5894C380.672 83.115 379.154 85.3708 377.168 87.1537C375.181 88.9366 372.789 90.1907 370.205 90.803H370.284ZM370.284 107.697V109.025C370.297 109.525 370.209 110.022 370.026 110.487C369.843 110.952 369.568 111.374 369.219 111.728C368.87 112.081 368.454 112.36 367.996 112.545C367.537 112.731 367.046 112.82 366.553 112.807C365.564 112.807 364.615 112.408 363.915 111.699C363.215 110.99 362.822 110.028 362.822 109.025V107.697C362.836 106.699 363.233 105.745 363.93 105.038C364.627 104.332 365.568 103.929 366.553 103.915C367.045 103.91 367.532 104.004 367.987 104.192C368.442 104.38 368.855 104.659 369.203 105.011C369.55 105.363 369.825 105.782 370.011 106.244C370.196 106.705 370.289 107.199 370.284 107.697Z" fill="#6E1255"/>
</svg>
